<svg width="736" height="412" viewBox="0 0 736 412" fill="none" xmlns="http://www.w3.org/2000/svg">
<path d="M216.938 88C217.521 87.6667 218.042 87.5 218.5 87.5H219.938C220.229 87.5 220.729 87.4792 221.438 87.4375C224.646 87.1458 226.542 86.8542 227.125 86.5625C228.583 85.7708 229.833 84.3958 230.875 82.4375C233.042 78.1875 235.479 72.1667 238.188 64.375C239.479 60.6667 240.292 58.4167 240.625 57.625C241.667 55.125 242.667 52.5 243.625 49.75L249.5 33.3125C250.417 30.7292 252.625 24.8125 256.125 15.5625C257 13.2292 258.062 10.1042 259.312 6.1875L261.125 6.0625L263.312 6.125C265.104 9.66667 266.688 13.4792 268.062 17.5625C268.812 19.7292 270.042 22.9583 271.75 27.25L281.25 52.9375L286.312 66.875C288.979 74.7917 290.729 79.6667 291.562 81.5C292.396 83.2917 293.167 84.4792 293.875 85.0625C294.083 85.2292 294.854 85.4792 296.188 85.8125C297.562 86.1458 298.521 86.3958 299.062 86.5625C300.979 87.1042 302.312 87.5625 303.062 87.9375C303.229 88.3958 303.312 88.75 303.312 89C303.312 89.2083 303.25 89.5208 303.125 89.9375C301.792 89.9792 300.854 90 300.312 90C298.188 90 294.438 89.9375 289.062 89.8125L282.812 89.625L275.25 89.75C274.75 89.75 274.229 89.7292 273.688 89.6875C273.188 89.6042 272.75 89.5625 272.375 89.5625H271C270.542 89.5208 270.125 89.3958 269.75 89.1875C269.75 88.6042 269.854 88.0417 270.062 87.5C270.562 87.25 271.021 87.1042 271.438 87.0625L278 86.625C279.708 86.5417 281 86.3125 281.875 85.9375C282.125 85.1875 282.25 84.625 282.25 84.25C282.25 83.5 281.708 81.5625 280.625 78.4375C279.875 76.3542 279.208 74.375 278.625 72.5C278.083 70.625 275.875 64.4583 272 54C270.292 53.7083 268.792 53.5625 267.5 53.5625L254.125 53.6875L250.188 53.625C248.771 53.625 247.208 53.7292 245.5 53.9375C244.958 55.1875 244.604 56.0833 244.438 56.625L238.938 73.8125C236.604 80.3542 235.438 83.9583 235.438 84.625C235.438 85 235.625 85.625 236 86.5C236.875 86.75 238.042 86.9792 239.5 87.1875L248 87.9375C248.458 88.3125 248.688 88.6458 248.688 88.9375C248.688 89.1458 248.625 89.4583 248.5 89.875C246.625 89.9167 245.188 89.9375 244.188 89.9375C240.854 89.9375 236.979 89.8333 232.562 89.625C230.521 89.5417 229.062 89.5 228.188 89.5C227.312 89.5 225.792 89.5417 223.625 89.625C222.208 89.7083 221.188 89.75 220.562 89.75C219.562 89.75 218.271 89.6875 216.688 89.5625V89.1875C216.688 88.8958 216.771 88.5 216.938 88ZM246.75 50.5C251.208 50.75 256.292 50.875 262 50.875C265.25 50.875 268.104 50.7708 270.562 50.5625C270.146 48.9375 269.667 47.4167 269.125 46C266.417 38.75 264.917 34.75 264.625 34L258.938 19.5625L258.312 18.4375C258.062 18.9375 257.146 21.0833 255.562 24.875C252.896 31.375 250.979 36.4375 249.812 40.0625C249.271 41.6875 248.708 43.3125 248.125 44.9375C247.542 46.5208 247.167 47.6458 247 48.3125C246.875 48.9375 246.667 49.5833 246.375 50.25L246.75 50.5Z" fill="black"/>
<path d="M0.125 184.75L24.125 184.812C24.5833 184.812 24.8958 184.896 25.0625 185.062C25.2292 185.229 25.3125 185.479 25.3125 185.812C25.3125 186.604 25 187.188 24.375 187.562C21.4583 187.771 19.6458 188.125 18.9375 188.625C18.2292 189.125 17.875 189.812 17.875 190.688C17.875 191.104 17.9167 191.5 18 191.875C18.125 192.375 18.7292 193.854 19.8125 196.312C21.2292 199.604 23.75 204.938 27.375 212.312L34.8125 227.438C39.0625 220.021 42.5 213.125 45.125 206.75L41.3125 196.75C40.8958 195.833 40.3542 194.458 39.6875 192.625C39.0625 190.792 38.5625 189.729 38.1875 189.438C37.8542 189.104 36.5833 188.625 34.375 188C32.1667 187.375 30.8542 186.896 30.4375 186.562L30.375 186.125C30.375 185.875 30.5 185.521 30.75 185.062C31.75 184.812 32.5417 184.688 33.125 184.688L36.6875 184.75H44.5L46.875 184.688L54.5625 184.812C55.1875 184.812 55.7083 184.792 56.125 184.75H57.1875C57.4375 184.75 57.7917 184.771 58.25 184.812L58.125 186.812C57.5 187.188 56.4583 187.458 55 187.625C52.25 187.917 50.1458 188.438 48.6875 189.188C48.2292 189.688 48 190.125 48 190.5C48 191.417 48.25 192.562 48.75 193.938C48.9167 194.354 49.3542 195.646 50.0625 197.812L56.75 215.438C58.7083 220.688 60.2083 224.354 61.25 226.438C63 223.229 65.4583 217.458 68.625 209.125C69.75 206.208 71.25 202.729 73.125 198.688C74.3333 196.146 74.9375 193.958 74.9375 192.125C74.9375 191.167 74.5833 190.354 73.875 189.688C73.1667 189.021 71.5208 188.396 68.9375 187.812C67.3958 187.479 66.25 187.167 65.5 186.875C65.2917 186.542 65.1875 186.271 65.1875 186.062C65.1875 185.688 65.4167 185.271 65.875 184.812H66.8125L71.875 184.75C72.0833 184.75 73.0417 184.792 74.75 184.875C76.4583 184.917 78.125 184.938 79.75 184.938C81 184.938 82.4375 184.896 84.0625 184.812H87.1875C87.4375 184.896 87.6042 185 87.6875 185.125C87.8125 185.25 87.875 185.458 87.875 185.75C87.875 186.208 87.8125 186.708 87.6875 187.25C85.6458 187.5 84.0417 187.979 82.875 188.688C81.7083 189.354 80.125 191.229 78.125 194.312L66.9375 221.188C65.8958 223.688 64.0833 227.521 61.5 232.688C60.9583 233.771 60.5417 234.646 60.25 235.312C60 235.979 59.75 236.417 59.5 236.625C59.25 236.833 58.9167 236.938 58.5 236.938C58.2083 236.938 57.8125 236.854 57.3125 236.688C56.1458 234.396 53.5625 228.083 49.5625 217.75C48.4792 214.958 47.4792 212.583 46.5625 210.625C39.7292 224.833 35.25 233.562 33.125 236.812C32.5417 236.896 32.1042 236.938 31.8125 236.938C31.5208 236.938 31.1042 236.896 30.5625 236.812L18.75 212.125L7.9375 191C7.1875 189.708 6.60417 188.917 6.1875 188.625C5.47917 188.167 4.22917 187.792 2.4375 187.5C1.4375 187.333 0.666667 187.208 0.125 187.125C0.0833333 186.5 0.0625 186.021 0.0625 185.688C0.0625 185.479 0.0833333 185.167 0.125 184.75Z" fill="black"/>
<path d="M95.6875 157.188C95.6875 155.812 96.2083 154.625 97.25 153.625C98.3333 152.625 99.625 152.125 101.125 152.125C102.667 152.125 104.021 152.688 105.188 153.812C106.354 154.938 106.938 156.146 106.938 157.438C106.938 158.729 106.354 159.958 105.188 161.125C104.021 162.25 102.667 162.812 101.125 162.812C99.5833 162.812 98.2917 162.292 97.25 161.25C96.2083 160.208 95.6875 158.854 95.6875 157.188ZM90.4375 189.562L90.5 187.75C93.2083 186.958 94.6667 186.5 94.875 186.375C96.375 185.708 97.9375 184.688 99.5625 183.312C101.229 181.938 102.625 180.396 103.75 178.688C104.25 178.604 104.646 178.562 104.938 178.562L105.688 178.625C105.854 180.625 105.938 182.083 105.938 183C105.938 183.208 105.896 184.146 105.812 185.812V189.125L105.875 207.125L105.688 226.188C105.646 227.729 105.896 228.812 106.438 229.438C106.979 230.021 108.583 230.688 111.25 231.438C112.917 231.896 114.167 232.292 115 232.625C115.125 232.917 115.188 233.167 115.188 233.375C115.188 233.625 115.083 233.938 114.875 234.312C113.25 234.271 111.167 234.167 108.625 234C105.167 233.708 102.875 233.562 101.75 233.562C101.208 233.562 97.875 233.667 91.75 233.875C90.5 233.917 89.2917 234.021 88.125 234.188C87.9167 234.188 87.5833 234.125 87.125 234C86.9167 233.708 86.8125 233.458 86.8125 233.25C86.8125 232.667 87.2083 232.208 88 231.875C88.1667 231.792 90.2917 231.312 94.375 230.438C95.7083 230.188 96.5833 229.771 97 229.188C97.7083 228.312 98.0625 226.917 98.0625 225C98.1458 221.792 98.1875 213 98.1875 198.625C98.1875 195.75 98.0625 193.958 97.8125 193.25C97.6042 192.75 97.0417 192.188 96.125 191.562C95.25 190.896 93.3542 190.229 90.4375 189.562Z" fill="black"/>
<path d="M134.062 172.25L136 172.312L136.25 178.25L136.125 185.938C136.917 185.979 137.417 186 137.625 186C138.708 186 140.771 185.917 143.812 185.75C145.771 185.625 147.646 185.562 149.438 185.562C150.271 185.562 151.521 185.583 153.188 185.625C153.271 186.458 153.312 187.125 153.312 187.625C153.312 188.167 153.188 189.021 152.938 190.188H151.875L142.188 190.5L137.375 190.625L136.25 190.75C135.917 191.792 135.75 193 135.75 194.375L135.938 203.75L135.812 220.25C135.812 224.583 136.375 227.458 137.5 228.875C138.583 230.333 140.208 231.062 142.375 231.062C143.458 231.062 145.5 230.729 148.5 230.062C149.417 229.854 150.646 229.167 152.188 228H152.75C153.125 228 153.417 228.125 153.625 228.375C153.875 228.583 154 228.875 154 229.25L153.938 229.688C152.146 231.646 150.083 233.083 147.75 234C145.458 234.875 142.396 235.312 138.562 235.312C135.854 235.312 133.604 234.688 131.812 233.438C130.062 232.188 128.938 230.708 128.438 229C127.938 227.292 127.688 223.562 127.688 217.812L127.938 203.75L127.875 197V194.5C127.875 193.333 127.833 192.167 127.75 191L126.688 190.938L121.562 191.125L121.062 191.188C120.604 191.188 120.25 191.083 120 190.875C119.792 190.667 119.688 190.417 119.688 190.125C119.688 189.625 119.833 189.229 120.125 188.938C120.458 188.604 121.417 188.104 123 187.438C124.083 186.979 125.333 186.125 126.75 184.875C128.208 183.583 129.438 182.167 130.438 180.625C130.938 179.792 131.646 178.208 132.562 175.875C133.229 174.167 133.729 172.958 134.062 172.25Z" fill="black"/>
<path d="M155.938 232.5C160.812 231.625 163.625 230.958 164.375 230.5C164.833 230.208 165.062 229.542 165.062 228.5L165 224.375L165.062 217.062L164.938 198.438L165 191.5V186.562L165.188 180.5C165.188 171 165.083 165.333 164.875 163.5C164.708 161.625 164.354 160.458 163.812 160C162.812 159.042 160.062 158.042 155.562 157V156.688C155.562 156.396 155.604 155.979 155.688 155.438C156.271 155.354 156.833 155.25 157.375 155.125C157.917 155 158.438 154.917 158.938 154.875C163.896 153.458 167.5 152.083 169.75 150.75H172.812C172.896 151.917 172.938 155.604 172.938 161.812L172.875 169.75L172.938 180L172.688 192.625C172.688 193.375 172.729 194.208 172.812 195.125C175.438 192.083 177.354 190.062 178.562 189.062C180.729 187.312 183.042 185.938 185.5 184.938C187.958 183.896 190.542 183.375 193.25 183.375C198.375 183.375 202.562 185.542 205.812 189.875C207.688 192.417 208.625 196.021 208.625 200.688L208.438 207.062L208.5 210.625L208.25 216.812C208.083 221.938 208 224.979 208 225.938C208 227.021 208.042 228.479 208.125 230.312L211.688 231.125C214.062 231.625 215.896 232.083 217.188 232.5L217.125 234.438L203.812 234.062C203.062 234.062 201.021 234.146 197.688 234.312C195.646 234.396 194.458 234.438 194.125 234.438H192.75C192.542 234.062 192.438 233.75 192.438 233.5V232.938C193.021 232.188 194.104 231.688 195.688 231.438L199.438 230.562C199.938 230.146 200.229 229.708 200.312 229.25C200.479 228.167 200.667 222.792 200.875 213.125L201 208.5C201.167 203.625 200.792 199.583 199.875 196.375C199.292 194.167 197.958 192.417 195.875 191.125C193.833 189.792 191.458 189.125 188.75 189.125C186.5 189.125 184.375 189.604 182.375 190.562C181 191.271 179.354 192.5 177.438 194.25C175.521 196 174.188 197.5 173.438 198.75C172.938 199.583 172.688 200.958 172.688 202.875L172.75 207.25L172.625 211.812C172.625 212.188 172.688 214.792 172.812 219.625L172.75 223.625L172.875 228C172.917 228.625 172.979 229.083 173.062 229.375L181.875 231.5C182.333 231.625 183.021 231.875 183.938 232.25L184.125 232.938C184.125 233.146 184.021 233.479 183.812 233.938C182.604 233.979 181.688 234 181.062 234L176.188 233.938L165.438 234.062L157.375 234.312C156.958 234.271 156.333 234.229 155.5 234.188L155.438 233.75C155.438 233.417 155.604 233 155.938 232.5Z" fill="black"/>
<path d="M223.5 208.875C223.5 206.042 224.083 203.021 225.25 199.812C226.458 196.562 228.271 193.667 230.688 191.125C233.104 188.542 235.667 186.625 238.375 185.375C242.167 183.625 246.792 182.75 252.25 182.75C260.042 182.75 266.542 185.417 271.75 190.75C277 196.083 279.625 202.5 279.625 210C279.625 216.667 276.875 222.625 271.375 227.875C265.917 233.083 259 235.688 250.625 235.688C245.458 235.688 240.583 234.333 236 231.625C232.583 229.583 229.646 226.562 227.188 222.562C224.729 218.562 223.5 214 223.5 208.875ZM251.125 233.25C254.292 233.25 257.333 232.396 260.25 230.688C263.208 228.979 265.562 226.25 267.312 222.5C269.062 218.708 269.938 214.333 269.938 209.375C269.938 206.125 269.25 202.354 267.875 198.062C266.542 193.771 264.458 190.562 261.625 188.438C258.833 186.271 255.542 185.188 251.75 185.188C249 185.188 246.188 185.833 243.312 187.125C240.479 188.417 238.062 190.896 236.062 194.562C234.104 198.229 233.125 203.438 233.125 210.188C233.125 217.771 234.833 223.521 238.25 227.438C241.708 231.312 246 233.25 251.125 233.25Z" fill="black"/>
<path d="M286.375 184.938H291.062L293.125 185.062L294.75 184.938C299.042 184.938 301.708 184.979 302.75 185.062L302.812 186.25C302.812 192.125 302.729 197.812 302.562 203.312C302.438 206.562 302.375 208.417 302.375 208.875C302.375 216.208 302.604 220.792 303.062 222.625C303.562 224.458 304.688 225.938 306.438 227.062C308.229 228.146 310.375 228.688 312.875 228.688C315.917 228.688 318.812 228.062 321.562 226.812C324.354 225.521 326.729 223.958 328.688 222.125C328.896 220.542 329 218.792 329 216.875C329 210.667 329.062 206.479 329.188 204.312C329.229 203.021 329.25 201.896 329.25 200.938C329.25 194.188 328.917 190.375 328.25 189.5C327.583 188.625 325.042 187.958 320.625 187.5C319.167 187.333 318.104 187.188 317.438 187.062C317.104 186.521 316.938 186.104 316.938 185.812L317.125 185.125C318.208 185 319.271 184.938 320.312 184.938L330.25 185.062C333.792 184.979 335.667 184.938 335.875 184.938C336.333 184.938 336.771 184.958 337.188 185L337.312 189.562C337.021 195.896 336.854 203.729 336.812 213.062L336.688 218.125L336.938 226.625C337.312 227.292 337.646 227.688 337.938 227.812C338.438 228.021 339.458 228.125 341 228.125H341.562C342.104 228.125 343.646 228.25 346.188 228.5C346.229 229.042 346.25 229.438 346.25 229.688V230.375C340.667 231.583 336.146 232.792 332.688 234C331.312 234.458 330.146 234.792 329.188 235C328.979 233.542 328.875 232.646 328.875 232.312V227.25C328.875 227.042 328.854 226.479 328.812 225.562C328.271 225.938 327.646 226.396 326.938 226.938C323.646 229.479 320.167 231.625 316.5 233.375C314.042 234.583 311.667 235.188 309.375 235.188C305 235.188 301.438 233.562 298.688 230.312C295.896 227.062 294.5 221.521 294.5 213.688C294.5 213.271 294.521 212.521 294.562 211.438C294.729 209.438 294.812 208.042 294.812 207.25C294.812 206.958 294.792 206.042 294.75 204.5C294.708 203.833 294.688 203.25 294.688 202.75C294.688 202.375 294.708 201.542 294.75 200.25C294.792 198.917 294.812 197.979 294.812 197.438C294.812 196.729 294.792 196.104 294.75 195.562L294.625 192.25L294.688 190.5C294.688 189.833 294.354 189.229 293.688 188.688C291.062 187.979 289.333 187.583 288.5 187.5C287.708 187.375 287 187.188 286.375 186.938V184.938Z" fill="black"/>
<path d="M364.938 172.25L366.875 172.312L367.125 178.25L367 185.938C367.792 185.979 368.292 186 368.5 186C369.583 186 371.646 185.917 374.688 185.75C376.646 185.625 378.521 185.562 380.312 185.562C381.146 185.562 382.396 185.583 384.062 185.625C384.146 186.458 384.188 187.125 384.188 187.625C384.188 188.167 384.062 189.021 383.812 190.188H382.75L373.062 190.5L368.25 190.625L367.125 190.75C366.792 191.792 366.625 193 366.625 194.375L366.812 203.75L366.688 220.25C366.688 224.583 367.25 227.458 368.375 228.875C369.458 230.333 371.083 231.062 373.25 231.062C374.333 231.062 376.375 230.729 379.375 230.062C380.292 229.854 381.521 229.167 383.062 228H383.625C384 228 384.292 228.125 384.5 228.375C384.75 228.583 384.875 228.875 384.875 229.25L384.812 229.688C383.021 231.646 380.958 233.083 378.625 234C376.333 234.875 373.271 235.312 369.438 235.312C366.729 235.312 364.479 234.688 362.688 233.438C360.938 232.188 359.812 230.708 359.312 229C358.812 227.292 358.562 223.562 358.562 217.812L358.812 203.75L358.75 197V194.5C358.75 193.333 358.708 192.167 358.625 191L357.562 190.938L352.438 191.125L351.938 191.188C351.479 191.188 351.125 191.083 350.875 190.875C350.667 190.667 350.562 190.417 350.562 190.125C350.562 189.625 350.708 189.229 351 188.938C351.333 188.604 352.292 188.104 353.875 187.438C354.958 186.979 356.208 186.125 357.625 184.875C359.083 183.583 360.312 182.167 361.312 180.625C361.812 179.792 362.521 178.208 363.438 175.875C364.104 174.167 364.604 172.958 364.938 172.25Z" fill="black"/>
<path d="M467.25 225.5C467.5 226.042 467.625 226.438 467.625 226.688C467.625 227.312 467.125 228.417 466.125 230C464.833 232.083 463.396 233.604 461.812 234.562C460.812 235.188 459.438 235.5 457.688 235.5C454.688 235.5 452.438 234.583 450.938 232.75C450.021 231.667 449.375 229.729 449 226.938L442 231.812C439.542 233.229 437.667 234.125 436.375 234.5C434.292 235.042 431.792 235.312 428.875 235.312C426.75 235.312 425.062 234.688 423.812 233.438C422.604 232.146 422 230.5 422 228.5C422 225.625 423.75 222.188 427.25 218.188C430.792 214.188 435.583 210.917 441.625 208.375C445.875 206.583 448.479 205.438 449.438 204.938C449.521 203.562 449.562 202.062 449.562 200.438C449.562 195.146 448.812 191.562 447.312 189.688C445.854 187.812 443.75 186.875 441 186.875C438.125 186.875 435.438 188 432.938 190.25C431.396 191.667 430.229 194.333 429.438 198.25C429.188 199.333 428.708 200.5 428 201.75C426.208 202.917 424.771 203.5 423.688 203.5C422.771 203.5 421.938 203.229 421.188 202.688C420.771 202.396 420.562 202.062 420.562 201.688C420.562 200.604 421.708 198.167 424 194.375C426.333 190.542 429.25 187.688 432.75 185.812C436.292 183.896 439.375 182.938 442 182.938C445.583 182.938 448.25 183.271 450 183.938C451.75 184.562 453.292 185.688 454.625 187.312C455.958 188.938 456.771 190.708 457.062 192.625C457.229 193.542 457.312 196.812 457.312 202.438L457.125 212.375L457.188 219.625C457.188 220.583 457.167 221.396 457.125 222.062C457.083 223.271 457.062 224.167 457.062 224.75C457.062 226.125 457.458 227.229 458.25 228.062C459.042 228.896 459.979 229.312 461.062 229.312C462.646 229.312 464 228.521 465.125 226.938L465.875 225.938C466.083 225.812 466.542 225.667 467.25 225.5ZM448.875 223.688C449.167 218.396 449.312 214.667 449.312 212.5C449.312 211.375 449.25 209.854 449.125 207.938C446.333 208.938 443.375 210.458 440.25 212.5C437.125 214.542 434.646 216.896 432.812 219.562C431.479 221.479 430.812 223.292 430.812 225C430.812 226.625 431.354 227.979 432.438 229.062C433.562 230.146 434.958 230.688 436.625 230.688C437.917 230.688 439.479 230.229 441.312 229.312C443.729 228.104 446.25 226.229 448.875 223.688Z" fill="black"/>
<path d="M502 266.625C501.958 266.167 501.938 265.75 501.938 265.375C501.938 265.083 501.979 264.729 502.062 264.312L508.312 263.062C509.312 262.562 510.125 261.958 510.75 261.25C510.958 260.5 511.062 259.75 511.062 259C511.062 252.583 510.896 240.354 510.562 222.312L510.375 199.438C510.292 195.812 510.062 193.521 509.688 192.562C509.479 192.062 509.167 191.667 508.75 191.375C507.708 190.583 505.625 189.917 502.5 189.375L502.875 187.5C507.375 185.583 510.375 184.104 511.875 183.062C513.417 181.979 514.875 180.479 516.25 178.562L517 178.375C517.292 178.375 517.708 178.5 518.25 178.75C518.208 181.375 518.188 183.104 518.188 183.938L518.25 190.812C521.333 188.479 524.542 186.75 527.875 185.625C531.208 184.458 534.667 183.875 538.25 183.875C544.667 183.875 550.083 186.146 554.5 190.688C558.917 195.188 561.125 201 561.125 208.125C561.125 213.417 559.875 218.167 557.375 222.375C554.917 226.583 551.5 229.729 547.125 231.812C542.792 233.896 538.417 234.938 534 234.938C530.25 234.938 525.958 233.917 521.125 231.875C520.333 231.542 519.625 231.25 519 231C518.917 234.333 518.875 237.292 518.875 239.875C518.875 252.75 519.229 259.958 519.938 261.5C520.312 262.333 521.479 262.833 523.438 263C526.771 263.25 528.979 263.729 530.062 264.438C530.688 264.812 531.104 265.562 531.312 266.688L525.125 266.812L519.5 266.688L510.125 266.75L502 266.625ZM518.312 195.125C518.229 195.708 518.188 196.25 518.188 196.75C518.188 211.625 518.333 219.958 518.625 221.75C519.208 225.042 520.375 227.354 522.125 228.688C524.833 230.812 528.708 231.875 533.75 231.875C538.958 231.875 543.354 230.083 546.938 226.5C550.521 222.875 552.312 218.188 552.312 212.438C552.312 205.521 550.417 200.042 546.625 196C542.833 191.958 537.833 189.938 531.625 189.938C529 189.938 526.583 190.375 524.375 191.25C522.167 192.083 520.146 193.375 518.312 195.125Z" fill="black"/>
<path d="M569.062 156.562V155.188C570.229 154.812 571.521 154.417 572.938 154C575.021 153.333 578.104 152.312 582.188 150.938H585.125C585.167 152.938 585.188 154.083 585.188 154.375C585.188 188.583 585.083 208.979 584.875 215.562C584.75 219.438 584.688 221.5 584.688 221.75C584.688 226.417 584.875 229.021 585.25 229.562C585.75 230.312 587.271 230.833 589.812 231.125C592.396 231.417 593.917 231.708 594.375 232C594.708 232.167 594.875 232.458 594.875 232.875C594.875 233.333 594.771 233.667 594.562 233.875C594.396 234.042 594.062 234.125 593.562 234.125C593.271 234.125 591.083 234.062 587 233.938L578.812 233.688L568.312 234.125C567.646 234.167 567.146 234.042 566.812 233.75C566.562 233.542 566.438 233.25 566.438 232.875C566.438 232.458 566.562 232.167 566.812 232C567.104 231.792 568.604 231.458 571.312 231C574.062 230.542 575.625 230.167 576 229.875C576.417 229.542 576.688 228.833 576.812 227.75C576.979 226.25 577.062 222.021 577.062 215.062L577 200.688L577.188 185.812L577.125 170.938L577.312 163.625C577.312 162.167 577.083 161.125 576.625 160.5C576.167 159.833 575.188 159.188 573.688 158.562C571.438 157.646 569.896 156.979 569.062 156.562Z" fill="black"/>
<path d="M646 225.5C646.25 226.042 646.375 226.438 646.375 226.688C646.375 227.312 645.875 228.417 644.875 230C643.583 232.083 642.146 233.604 640.562 234.562C639.562 235.188 638.188 235.5 636.438 235.5C633.438 235.5 631.188 234.583 629.688 232.75C628.771 231.667 628.125 229.729 627.75 226.938L620.75 231.812C618.292 233.229 616.417 234.125 615.125 234.5C613.042 235.042 610.542 235.312 607.625 235.312C605.5 235.312 603.812 234.688 602.562 233.438C601.354 232.146 600.75 230.5 600.75 228.5C600.75 225.625 602.5 222.188 606 218.188C609.542 214.188 614.333 210.917 620.375 208.375C624.625 206.583 627.229 205.438 628.188 204.938C628.271 203.562 628.312 202.062 628.312 200.438C628.312 195.146 627.562 191.562 626.062 189.688C624.604 187.812 622.5 186.875 619.75 186.875C616.875 186.875 614.188 188 611.688 190.25C610.146 191.667 608.979 194.333 608.188 198.25C607.938 199.333 607.458 200.5 606.75 201.75C604.958 202.917 603.521 203.5 602.438 203.5C601.521 203.5 600.688 203.229 599.938 202.688C599.521 202.396 599.312 202.062 599.312 201.688C599.312 200.604 600.458 198.167 602.75 194.375C605.083 190.542 608 187.688 611.5 185.812C615.042 183.896 618.125 182.938 620.75 182.938C624.333 182.938 627 183.271 628.75 183.938C630.5 184.562 632.042 185.688 633.375 187.312C634.708 188.938 635.521 190.708 635.812 192.625C635.979 193.542 636.062 196.812 636.062 202.438L635.875 212.375L635.938 219.625C635.938 220.583 635.917 221.396 635.875 222.062C635.833 223.271 635.812 224.167 635.812 224.75C635.812 226.125 636.208 227.229 637 228.062C637.792 228.896 638.729 229.312 639.812 229.312C641.396 229.312 642.75 228.521 643.875 226.938L644.625 225.938C644.833 225.812 645.292 225.667 646 225.5ZM627.625 223.688C627.917 218.396 628.062 214.667 628.062 212.5C628.062 211.375 628 209.854 627.875 207.938C625.083 208.938 622.125 210.458 619 212.5C615.875 214.542 613.396 216.896 611.562 219.562C610.229 221.479 609.562 223.292 609.562 225C609.562 226.625 610.104 227.979 611.188 229.062C612.312 230.146 613.708 230.688 615.375 230.688C616.667 230.688 618.229 230.229 620.062 229.312C622.479 228.104 625 226.229 627.625 223.688Z" fill="black"/>
<path d="M649.562 232C650.604 231.708 651.812 231.458 653.188 231.25C655.812 230.875 657.375 230.438 657.875 229.938C658.417 229.438 658.688 228.292 658.688 226.5L658.812 224.25C658.854 223.417 658.875 222.354 658.875 221.062L658.75 201.875C658.75 199.292 658.417 197.625 657.75 196.875C656.625 195.708 654.542 194.896 651.5 194.438V192.188C654.542 191.354 656.875 190.271 658.5 188.938C660.875 187.062 662.875 184.521 664.5 181.312L666.625 181.375C666.75 183.333 666.812 184.729 666.812 185.562V189.688L666.875 190.812C667.375 190.479 667.958 190.062 668.625 189.562C671.125 187.688 673.688 186.167 676.312 185C678.938 183.792 681.271 182.958 683.312 182.5C684.604 182.167 686.062 182 687.688 182C691.104 182 694.042 182.917 696.5 184.75C698.958 186.583 700.542 188.75 701.25 191.25C702 193.708 702.375 198.625 702.375 206V215.438C702.375 215.688 702.333 216.521 702.25 217.938C702.208 219.354 702.188 220.979 702.188 222.812C702.188 225.729 702.312 227.583 702.562 228.375C702.771 228.917 703.312 229.458 704.188 230C708.188 230.542 710.521 231.188 711.188 231.938V232.438C711.188 232.854 711.062 233.375 710.812 234H709.625L701.375 233.938L693.25 234.062C690.25 234.146 687.479 234.125 684.938 234L684.562 232.688C684.562 232.438 684.708 232.104 685 231.688C686.125 231.188 687.708 230.854 689.75 230.688C690.958 230.604 691.792 230.479 692.25 230.312C692.708 230.146 693.271 229.812 693.938 229.312C694.438 228.312 694.688 227.479 694.688 226.812C694.688 226.521 694.646 225.938 694.562 225.062C694.438 223.146 694.354 218.375 694.312 210.75V207.5L694.438 202.5C694.438 197.125 693.354 193.417 691.188 191.375C689.021 189.333 686.125 188.312 682.5 188.312C679.708 188.312 676.979 188.938 674.312 190.188C671.646 191.396 669.062 193.229 666.562 195.688C666.479 197.688 666.438 199.396 666.438 200.812L666.625 214.625C666.625 221.833 666.729 226.25 666.938 227.875C667.021 228.542 667.167 229 667.375 229.25C667.708 229.583 668.375 229.854 669.375 230.062C670.375 230.271 671.521 230.562 672.812 230.938C674.146 231.312 675.021 231.542 675.438 231.625C676.271 231.833 676.833 232.25 677.125 232.875L677.062 234.125H670.5L657 233.938C653.875 234.021 651.896 234.062 651.062 234.062H649.5L649.375 233.25C649.375 232.958 649.438 232.542 649.562 232Z" fill="black"/>
<path d="M12.25 301.188C12.25 299.812 12.7708 298.625 13.8125 297.625C14.8958 296.625 16.1875 296.125 17.6875 296.125C19.2292 296.125 20.5833 296.688 21.75 297.812C22.9167 298.938 23.5 300.146 23.5 301.438C23.5 302.729 22.9167 303.958 21.75 305.125C20.5833 306.25 19.2292 306.812 17.6875 306.812C16.1458 306.812 14.8542 306.292 13.8125 305.25C12.7708 304.208 12.25 302.854 12.25 301.188ZM7 333.562L7.0625 331.75C9.77083 330.958 11.2292 330.5 11.4375 330.375C12.9375 329.708 14.5 328.688 16.125 327.312C17.7917 325.938 19.1875 324.396 20.3125 322.688C20.8125 322.604 21.2083 322.562 21.5 322.562L22.25 322.625C22.4167 324.625 22.5 326.083 22.5 327C22.5 327.208 22.4583 328.146 22.375 329.812V333.125L22.4375 351.125L22.25 370.188C22.2083 371.729 22.4583 372.812 23 373.438C23.5417 374.021 25.1458 374.688 27.8125 375.438C29.4792 375.896 30.7292 376.292 31.5625 376.625C31.6875 376.917 31.75 377.167 31.75 377.375C31.75 377.625 31.6458 377.938 31.4375 378.312C29.8125 378.271 27.7292 378.167 25.1875 378C21.7292 377.708 19.4375 377.562 18.3125 377.562C17.7708 377.562 14.4375 377.667 8.3125 377.875C7.0625 377.917 5.85417 378.021 4.6875 378.188C4.47917 378.188 4.14583 378.125 3.6875 378C3.47917 377.708 3.375 377.458 3.375 377.25C3.375 376.667 3.77083 376.208 4.5625 375.875C4.72917 375.792 6.85417 375.312 10.9375 374.438C12.2708 374.188 13.1458 373.771 13.5625 373.188C14.2708 372.312 14.625 370.917 14.625 369C14.7083 365.792 14.75 357 14.75 342.625C14.75 339.75 14.625 337.958 14.375 337.25C14.1667 336.75 13.6042 336.188 12.6875 335.562C11.8125 334.896 9.91667 334.229 7 333.562Z" fill="black"/>
<path d="M41.8125 362.125C43.3542 366.083 44.5208 368.646 45.3125 369.812C46.8958 372.188 48.7917 374.042 51 375.375C53.2083 376.667 55.6042 377.312 58.1875 377.312C60.5625 377.312 62.9167 376.292 65.25 374.25C66.9167 372.708 67.75 370.917 67.75 368.875C67.75 366.167 66.7708 363.667 64.8125 361.375C62.8542 359.125 59.125 356.979 53.625 354.938C48.1667 352.854 44.5 350.646 42.625 348.312C40.75 345.979 39.8125 343.312 39.8125 340.312C39.8125 337.479 40.5833 334.979 42.125 332.812C43.6667 330.646 45.7917 329.021 48.5 327.938C51.2083 326.812 53.7083 326.25 56 326.25C58.9583 326.25 61.6042 326.479 63.9375 326.938C66.3125 327.396 68.3542 328.104 70.0625 329.062C70.3958 331.188 70.6667 334.312 70.875 338.438L71 340.438C70.4583 340.479 70 340.5 69.625 340.5H68.75C67.5 337.042 65.5833 334.312 63 332.312C60.4583 330.271 57.9375 329.25 55.4375 329.25C52.9375 329.25 50.9167 330.021 49.375 331.562C47.8333 333.062 47.0625 335.042 47.0625 337.5C47.0625 339.375 47.6875 341.042 48.9375 342.5C50.1875 343.958 53.1042 345.625 57.6875 347.5C62.3125 349.375 65.6667 351.125 67.75 352.75C69.875 354.333 71.4375 356.271 72.4375 358.562C73.4375 360.854 73.9375 363.042 73.9375 365.125C73.9375 368 72.9792 370.688 71.0625 373.188C69.1875 375.688 66.8125 377.438 63.9375 378.438C61.1042 379.479 58.5625 380 56.3125 380C51.0208 380 46.1458 379.021 41.6875 377.062C41.2708 376.729 41.0417 376.104 41 375.188C41 374.812 40.9583 374.208 40.875 373.375C40.2083 367.75 39.875 364.417 39.875 363.375C39.875 362.875 39.9792 362.542 40.1875 362.375C40.3958 362.208 40.9375 362.125 41.8125 362.125Z" fill="black"/>
<path d="M119.5 302.375C119.5 300.792 120.021 299.479 121.062 298.438C122.146 297.354 123.438 296.812 124.938 296.812C126.479 296.812 127.771 297.333 128.812 298.375C129.896 299.417 130.438 300.771 130.438 302.438C130.438 304.146 129.854 305.646 128.688 306.938C127.854 307.854 126.625 308.312 125 308.312C123.458 308.312 122.146 307.771 121.062 306.688C120.021 305.562 119.5 304.125 119.5 302.375ZM114.125 410.25L118.875 404.438C120 402.646 120.875 400.771 121.5 398.812C122.167 396.854 122.625 394.438 122.875 391.562C123.25 386.771 123.438 382.562 123.438 378.938C123.438 377.896 123.396 376.438 123.312 374.562L123.375 364.812C123.417 352.604 123.333 344.729 123.125 341.188C123 338.979 122.667 337.604 122.125 337.062C121.333 336.312 119.521 335.812 116.688 335.562C116.396 335.521 115.979 335.479 115.438 335.438L115.562 333.062C121.021 331.688 124.979 329.375 127.438 326.125C127.979 325.458 128.583 324.792 129.25 324.125L129.688 324.062C129.896 324.062 130.188 324.146 130.562 324.312L130.75 347.062C131.042 362.938 131.188 371.562 131.188 372.938C131.188 380.938 130.771 386.729 129.938 390.312C129.146 393.938 127.625 397.542 125.375 401.125C123.792 403.625 121.521 406.208 118.562 408.875L116 411.188L115.125 411.688C114.75 411.354 114.417 410.875 114.125 410.25Z" fill="black"/>
<path d="M142.938 328.938H147.625L149.688 329.062L151.312 328.938C155.604 328.938 158.271 328.979 159.312 329.062L159.375 330.25C159.375 336.125 159.292 341.812 159.125 347.312C159 350.562 158.938 352.417 158.938 352.875C158.938 360.208 159.167 364.792 159.625 366.625C160.125 368.458 161.25 369.938 163 371.062C164.792 372.146 166.938 372.688 169.438 372.688C172.479 372.688 175.375 372.062 178.125 370.812C180.917 369.521 183.292 367.958 185.25 366.125C185.458 364.542 185.562 362.792 185.562 360.875C185.562 354.667 185.625 350.479 185.75 348.312C185.792 347.021 185.812 345.896 185.812 344.938C185.812 338.188 185.479 334.375 184.812 333.5C184.146 332.625 181.604 331.958 177.188 331.5C175.729 331.333 174.667 331.188 174 331.062C173.667 330.521 173.5 330.104 173.5 329.812L173.688 329.125C174.771 329 175.833 328.938 176.875 328.938L186.812 329.062C190.354 328.979 192.229 328.938 192.438 328.938C192.896 328.938 193.333 328.958 193.75 329L193.875 333.562C193.583 339.896 193.417 347.729 193.375 357.062L193.25 362.125L193.5 370.625C193.875 371.292 194.208 371.688 194.5 371.812C195 372.021 196.021 372.125 197.562 372.125H198.125C198.667 372.125 200.208 372.25 202.75 372.5C202.792 373.042 202.812 373.438 202.812 373.688V374.375C197.229 375.583 192.708 376.792 189.25 378C187.875 378.458 186.708 378.792 185.75 379C185.542 377.542 185.438 376.646 185.438 376.312V371.25C185.438 371.042 185.417 370.479 185.375 369.562C184.833 369.938 184.208 370.396 183.5 370.938C180.208 373.479 176.729 375.625 173.062 377.375C170.604 378.583 168.229 379.188 165.938 379.188C161.562 379.188 158 377.562 155.25 374.312C152.458 371.062 151.062 365.521 151.062 357.688C151.062 357.271 151.083 356.521 151.125 355.438C151.292 353.438 151.375 352.042 151.375 351.25C151.375 350.958 151.354 350.042 151.312 348.5C151.271 347.833 151.25 347.25 151.25 346.75C151.25 346.375 151.271 345.542 151.312 344.25C151.354 342.917 151.375 341.979 151.375 341.438C151.375 340.729 151.354 340.104 151.312 339.562L151.188 336.25L151.25 334.5C151.25 333.833 150.917 333.229 150.25 332.688C147.625 331.979 145.896 331.583 145.062 331.5C144.271 331.375 143.562 331.188 142.938 330.938V328.938Z" fill="black"/>
<path d="M212.688 362.125C214.229 366.083 215.396 368.646 216.188 369.812C217.771 372.188 219.667 374.042 221.875 375.375C224.083 376.667 226.479 377.312 229.062 377.312C231.438 377.312 233.792 376.292 236.125 374.25C237.792 372.708 238.625 370.917 238.625 368.875C238.625 366.167 237.646 363.667 235.688 361.375C233.729 359.125 230 356.979 224.5 354.938C219.042 352.854 215.375 350.646 213.5 348.312C211.625 345.979 210.688 343.312 210.688 340.312C210.688 337.479 211.458 334.979 213 332.812C214.542 330.646 216.667 329.021 219.375 327.938C222.083 326.812 224.583 326.25 226.875 326.25C229.833 326.25 232.479 326.479 234.812 326.938C237.188 327.396 239.229 328.104 240.938 329.062C241.271 331.188 241.542 334.312 241.75 338.438L241.875 340.438C241.333 340.479 240.875 340.5 240.5 340.5H239.625C238.375 337.042 236.458 334.312 233.875 332.312C231.333 330.271 228.812 329.25 226.312 329.25C223.812 329.25 221.792 330.021 220.25 331.562C218.708 333.062 217.938 335.042 217.938 337.5C217.938 339.375 218.562 341.042 219.812 342.5C221.062 343.958 223.979 345.625 228.562 347.5C233.188 349.375 236.542 351.125 238.625 352.75C240.75 354.333 242.312 356.271 243.312 358.562C244.312 360.854 244.812 363.042 244.812 365.125C244.812 368 243.854 370.688 241.938 373.188C240.062 375.688 237.688 377.438 234.812 378.438C231.979 379.479 229.438 380 227.188 380C221.896 380 217.021 379.021 212.562 377.062C212.146 376.729 211.917 376.104 211.875 375.188C211.875 374.812 211.833 374.208 211.75 373.375C211.083 367.75 210.75 364.417 210.75 363.375C210.75 362.875 210.854 362.542 211.062 362.375C211.271 362.208 211.812 362.125 212.688 362.125Z" fill="black"/>
<path d="M268.25 316.25L270.188 316.312L270.438 322.25L270.312 329.938C271.104 329.979 271.604 330 271.812 330C272.896 330 274.958 329.917 278 329.75C279.958 329.625 281.833 329.562 283.625 329.562C284.458 329.562 285.708 329.583 287.375 329.625C287.458 330.458 287.5 331.125 287.5 331.625C287.5 332.167 287.375 333.021 287.125 334.188H286.062L276.375 334.5L271.562 334.625L270.438 334.75C270.104 335.792 269.938 337 269.938 338.375L270.125 347.75L270 364.25C270 368.583 270.562 371.458 271.688 372.875C272.771 374.333 274.396 375.062 276.562 375.062C277.646 375.062 279.688 374.729 282.688 374.062C283.604 373.854 284.833 373.167 286.375 372H286.938C287.312 372 287.604 372.125 287.812 372.375C288.062 372.583 288.188 372.875 288.188 373.25L288.125 373.688C286.333 375.646 284.271 377.083 281.938 378C279.646 378.875 276.583 379.312 272.75 379.312C270.042 379.312 267.792 378.688 266 377.438C264.25 376.188 263.125 374.708 262.625 373C262.125 371.292 261.875 367.562 261.875 361.812L262.125 347.75L262.062 341V338.5C262.062 337.333 262.021 336.167 261.938 335L260.875 334.938L255.75 335.125L255.25 335.188C254.792 335.188 254.438 335.083 254.188 334.875C253.979 334.667 253.875 334.417 253.875 334.125C253.875 333.625 254.021 333.229 254.312 332.938C254.646 332.604 255.604 332.104 257.188 331.438C258.271 330.979 259.521 330.125 260.938 328.875C262.396 327.583 263.625 326.167 264.625 324.625C265.125 323.792 265.833 322.208 266.75 319.875C267.417 318.167 267.917 316.958 268.25 316.25Z" fill="black"/>
<path d="M370.562 369.5C370.812 370.042 370.938 370.438 370.938 370.688C370.938 371.312 370.438 372.417 369.438 374C368.146 376.083 366.708 377.604 365.125 378.562C364.125 379.188 362.75 379.5 361 379.5C358 379.5 355.75 378.583 354.25 376.75C353.333 375.667 352.688 373.729 352.312 370.938L345.312 375.812C342.854 377.229 340.979 378.125 339.688 378.5C337.604 379.042 335.104 379.312 332.188 379.312C330.062 379.312 328.375 378.688 327.125 377.438C325.917 376.146 325.312 374.5 325.312 372.5C325.312 369.625 327.062 366.188 330.562 362.188C334.104 358.188 338.896 354.917 344.938 352.375C349.188 350.583 351.792 349.438 352.75 348.938C352.833 347.562 352.875 346.062 352.875 344.438C352.875 339.146 352.125 335.562 350.625 333.688C349.167 331.812 347.062 330.875 344.312 330.875C341.438 330.875 338.75 332 336.25 334.25C334.708 335.667 333.542 338.333 332.75 342.25C332.5 343.333 332.021 344.5 331.312 345.75C329.521 346.917 328.083 347.5 327 347.5C326.083 347.5 325.25 347.229 324.5 346.688C324.083 346.396 323.875 346.062 323.875 345.688C323.875 344.604 325.021 342.167 327.312 338.375C329.646 334.542 332.562 331.688 336.062 329.812C339.604 327.896 342.688 326.938 345.312 326.938C348.896 326.938 351.562 327.271 353.312 327.938C355.062 328.562 356.604 329.688 357.938 331.312C359.271 332.938 360.083 334.708 360.375 336.625C360.542 337.542 360.625 340.812 360.625 346.438L360.438 356.375L360.5 363.625C360.5 364.583 360.479 365.396 360.438 366.062C360.396 367.271 360.375 368.167 360.375 368.75C360.375 370.125 360.771 371.229 361.562 372.062C362.354 372.896 363.292 373.312 364.375 373.312C365.958 373.312 367.312 372.521 368.438 370.938L369.188 369.938C369.396 369.812 369.854 369.667 370.562 369.5ZM352.188 367.688C352.479 362.396 352.625 358.667 352.625 356.5C352.625 355.375 352.562 353.854 352.438 351.938C349.646 352.938 346.688 354.458 343.562 356.5C340.438 358.542 337.958 360.896 336.125 363.562C334.792 365.479 334.125 367.292 334.125 369C334.125 370.625 334.667 371.979 335.75 373.062C336.875 374.146 338.271 374.688 339.938 374.688C341.229 374.688 342.792 374.229 344.625 373.312C347.042 372.104 349.562 370.229 352.188 367.688Z" fill="black"/>
<path d="M449.375 332.625L449.438 330.812L449.375 323.5L449.438 309.688C449.438 305.854 449.021 303.417 448.188 302.375C447.354 301.333 444.917 300.271 440.875 299.188C440.583 299.104 440.125 298.979 439.5 298.812V298.125C439.5 297.708 439.542 297.25 439.625 296.75C445.292 296.167 450.167 295.188 454.25 293.812L457.438 293.75C457.604 296.583 457.688 299.75 457.688 303.25L457.438 327.312L457.875 354.438L457.688 368.875C457.688 371.833 457.896 373.5 458.312 373.875C459.146 374.708 460.979 375.146 463.812 375.188C464.396 375.188 465.188 375.229 466.188 375.312V376.438C466.188 376.729 466.167 377.042 466.125 377.375C464.833 377.667 463.5 377.938 462.125 378.188L453.062 379.938C451.729 380.188 450.667 380.312 449.875 380.312V374.312C449.167 374.521 448.062 374.938 446.562 375.562C440.062 378.312 434.083 379.688 428.625 379.688C425.333 379.688 421.979 378.625 418.562 376.5C415.146 374.333 412.521 371.333 410.688 367.5C408.854 363.667 407.938 359.75 407.938 355.75C407.938 352.167 408.542 348.75 409.75 345.5C410.958 342.208 412.542 339.479 414.5 337.312C415.75 335.896 417.521 334.5 419.812 333.125C422.104 331.708 424 330.812 425.5 330.438C429.208 329.479 431.688 329 432.938 329C438.562 329 443.188 329.833 446.812 331.5C447.938 332.042 448.792 332.417 449.375 332.625ZM449.438 371.25C449.604 368.458 449.688 362.708 449.688 354C449.688 346.625 449.333 341.979 448.625 340.062C447.958 338.104 446.25 336.271 443.5 334.562C440.75 332.812 437.667 331.938 434.25 331.938C429.458 331.938 425.396 333.792 422.062 337.5C418.729 341.208 417.062 346.688 417.062 353.938C417.062 360.312 418.854 365.396 422.438 369.188C426.062 372.979 430.562 374.875 435.938 374.875C439.021 374.875 441.833 374.458 444.375 373.625C446.917 372.792 448.604 372 449.438 371.25Z" fill="black"/>
<path d="M470.312 378.188L470.062 377.375C470.062 377.083 470.25 376.646 470.625 376.062L474.312 375.312L479.5 374.375C479.917 374.167 480.208 373.875 480.375 373.5C480.625 372.958 480.75 371.354 480.75 368.688C480.75 354.521 480.667 346.354 480.5 344.188C480.333 341.979 479.958 340.583 479.375 340C478.792 339.417 477.292 338.958 474.875 338.625C473.458 338.417 472.333 338.146 471.5 337.812L471.75 335.938C476.125 334.146 479.062 332.604 480.562 331.312C482.646 329.438 484.417 326.979 485.875 323.938L488 324C488.25 326.083 488.375 330.708 488.375 337.875L488.312 338.938C488.312 339.188 488.354 339.583 488.438 340.125C490.021 337.25 492 334.604 494.375 332.188L495.812 330.75C496.396 330.083 496.958 329.562 497.5 329.188C500.417 327.438 502.583 326.562 504 326.562C505.833 326.562 507.333 327.188 508.5 328.438C509.667 329.646 510.25 331.146 510.25 332.938C510.25 334.354 509.833 335.458 509 336.25C507.875 337.292 506.583 337.812 505.125 337.812C504.458 337.812 503.146 337.458 501.188 336.75C499.229 336.042 497.938 335.688 497.312 335.688C496.146 335.688 495.333 335.875 494.875 336.25C493.708 337.167 492.292 339.042 490.625 341.875C489.333 344 488.688 345.958 488.688 347.75L489 358.062L489.125 370.438C489.25 371.854 489.417 372.771 489.625 373.188C489.792 373.479 490.208 373.833 490.875 374.25C495.375 374.625 498.042 374.896 498.875 375.062C499.458 375.104 499.896 375.146 500.188 375.188C501.979 375.229 503.229 375.479 503.938 375.938C504.312 376.146 504.5 376.458 504.5 376.875C504.5 377.125 504.333 377.458 504 377.875L497.062 377.812L494.438 377.75L490.625 377.812H484.25L480.812 378L470.312 378.188Z" fill="black"/>
<path d="M560 345L534.938 345.188H530.188C528.271 345.188 526.312 345.271 524.312 345.438C523.938 346.688 523.75 347.542 523.75 348L523.812 348.625V349.25L523.75 352.312C523.75 354.854 524.542 357.979 526.125 361.688C527.75 365.354 530.042 368.167 533 370.125C536 372.042 539.729 373.062 544.188 373.188C546.562 373.062 548.458 372.771 549.875 372.312C551.292 371.854 553.292 370.792 555.875 369.125L560.375 365.438L560.75 367.938C560.75 368.229 560.729 368.542 560.688 368.875C558.812 371.25 556.438 373.333 553.562 375.125C550.688 376.917 547.771 378.229 544.812 379.062C543.396 379.438 541.062 379.625 537.812 379.625C534.854 379.625 531.938 379.021 529.062 377.812C524.812 375.979 521.458 373.042 519 369C516.583 364.917 515.375 359.979 515.375 354.188C515.375 352.354 515.708 350 516.375 347.125C517.083 344.25 518.333 341.188 520.125 337.938C521.333 335.729 522.812 333.917 524.562 332.5C527.062 330.5 529.25 329.104 531.125 328.312C533.833 327.188 536.979 326.625 540.562 326.625C544.438 326.625 547.604 327.333 550.062 328.75C553.396 330.625 555.875 333.042 557.5 336C559.167 338.958 560 341.667 560 344.125V345ZM525.125 342.75H528.062C530.188 342.75 536.521 342.417 547.062 341.75C548.729 341.667 549.75 341.5 550.125 341.25C550.875 340.458 551.25 339.75 551.25 339.125C551.25 337.833 550.833 336.375 550 334.75C549.167 333.083 547.875 331.812 546.125 330.938C544.417 330.021 542.417 329.562 540.125 329.562C535.292 329.562 531.417 331.375 528.5 335C526.25 337.75 525.125 340.333 525.125 342.75Z" fill="black"/>
<path d="M614.688 369.5C614.938 370.042 615.062 370.438 615.062 370.688C615.062 371.312 614.562 372.417 613.562 374C612.271 376.083 610.833 377.604 609.25 378.562C608.25 379.188 606.875 379.5 605.125 379.5C602.125 379.5 599.875 378.583 598.375 376.75C597.458 375.667 596.812 373.729 596.438 370.938L589.438 375.812C586.979 377.229 585.104 378.125 583.812 378.5C581.729 379.042 579.229 379.312 576.312 379.312C574.188 379.312 572.5 378.688 571.25 377.438C570.042 376.146 569.438 374.5 569.438 372.5C569.438 369.625 571.188 366.188 574.688 362.188C578.229 358.188 583.021 354.917 589.062 352.375C593.312 350.583 595.917 349.438 596.875 348.938C596.958 347.562 597 346.062 597 344.438C597 339.146 596.25 335.562 594.75 333.688C593.292 331.812 591.188 330.875 588.438 330.875C585.562 330.875 582.875 332 580.375 334.25C578.833 335.667 577.667 338.333 576.875 342.25C576.625 343.333 576.146 344.5 575.438 345.75C573.646 346.917 572.208 347.5 571.125 347.5C570.208 347.5 569.375 347.229 568.625 346.688C568.208 346.396 568 346.062 568 345.688C568 344.604 569.146 342.167 571.438 338.375C573.771 334.542 576.688 331.688 580.188 329.812C583.729 327.896 586.812 326.938 589.438 326.938C593.021 326.938 595.688 327.271 597.438 327.938C599.188 328.562 600.729 329.688 602.062 331.312C603.396 332.938 604.208 334.708 604.5 336.625C604.667 337.542 604.75 340.812 604.75 346.438L604.562 356.375L604.625 363.625C604.625 364.583 604.604 365.396 604.562 366.062C604.521 367.271 604.5 368.167 604.5 368.75C604.5 370.125 604.896 371.229 605.688 372.062C606.479 372.896 607.417 373.312 608.5 373.312C610.083 373.312 611.438 372.521 612.562 370.938L613.312 369.938C613.521 369.812 613.979 369.667 614.688 369.5ZM596.312 367.688C596.604 362.396 596.75 358.667 596.75 356.5C596.75 355.375 596.688 353.854 596.562 351.938C593.771 352.938 590.812 354.458 587.688 356.5C584.562 358.542 582.083 360.896 580.25 363.562C578.917 365.479 578.25 367.292 578.25 369C578.25 370.625 578.792 371.979 579.875 373.062C581 374.146 582.396 374.688 584.062 374.688C585.354 374.688 586.917 374.229 588.75 373.312C591.167 372.104 593.688 370.229 596.312 367.688Z" fill="black"/>
<path d="M618.375 375.812C619.042 375.354 619.958 375.042 621.125 374.875C622.792 374.667 624.083 374.333 625 373.875C625.75 373.25 626.25 372.354 626.5 371.188C626.792 369.688 626.938 364.417 626.938 355.375C626.938 346.5 626.667 340.771 626.125 338.188C625.208 337.604 624.021 337.146 622.562 336.812C622.104 336.729 621.146 336.5 619.688 336.125V334.062C622.146 333.354 624.125 332.438 625.625 331.312C627.167 330.188 629.292 327.938 632 324.562H632.375C632.625 324.562 633.021 324.542 633.562 324.5C633.896 324.542 634.167 324.646 634.375 324.812L634.312 331.938C634.312 333.396 634.354 334.958 634.438 336.625C638.896 332.583 642.896 329.75 646.438 328.125C648.854 327.042 651.583 326.5 654.625 326.5C658.25 326.5 661.125 327.188 663.25 328.562C665.375 329.938 667.396 332.417 669.312 336C673.021 332.333 676.375 329.771 679.375 328.312C682.417 326.854 685.479 326.125 688.562 326.125C693.229 326.125 697.062 327.646 700.062 330.688C703.021 333.771 704.542 338.292 704.625 344.25V349.438L704.688 355.125L704.625 369.75C704.583 371.458 704.958 372.75 705.75 373.625C706.083 373.75 707.354 374.125 709.562 374.75C710.938 375.125 711.75 375.417 712 375.625C712.25 375.833 712.375 376.125 712.375 376.5C712.375 376.958 712.25 377.5 712 378.125H711.562L705.25 377.75C704.5 377.708 703.312 377.688 701.688 377.688C699.688 377.688 696.896 377.771 693.312 377.938H690.125C689.667 377.938 688.771 377.958 687.438 378C687.396 377.625 687.375 377.292 687.375 377C687.375 376.667 687.521 376.25 687.812 375.75C688.938 375.25 690.479 374.854 692.438 374.562C694.396 374.229 695.604 373.667 696.062 372.875C696.562 372.042 696.812 368.792 696.812 363.125C696.812 350.833 696.667 343.708 696.375 341.75C695.875 338.625 694.542 336.188 692.375 334.438C690.25 332.646 687.562 331.75 684.312 331.75C681.812 331.75 679.375 332.417 677 333.75C674.625 335.042 672.292 337 670 339.625L669.938 341.125V350.688L669.688 358.125C669.688 365.708 669.75 370.021 669.875 371.062C670.042 372.104 670.396 372.875 670.938 373.375C671.521 373.833 673.167 374.25 675.875 374.625C677.083 374.792 678.021 374.958 678.688 375.125C679.188 375.542 679.438 376.083 679.438 376.75C679.438 377.292 679.25 377.667 678.875 377.875H677.812L674.688 377.812H656.5L651.5 377.875C651.417 377.25 651.375 376.792 651.375 376.5L651.438 375.75C652.354 375.25 654.062 374.771 656.562 374.312C657.854 374.104 659.188 373.75 660.562 373.25C660.812 373.042 661 372.771 661.125 372.438C661.333 371.854 661.479 370.188 661.562 367.438L661.875 360.188L661.75 352L661.812 347.438C661.812 342.312 660.771 338.583 658.688 336.25C656.604 333.875 653.979 332.688 650.812 332.688C647.854 332.688 644.875 333.417 641.875 334.875C638.917 336.333 636.458 338.292 634.5 340.75C634.458 341.917 634.438 342.979 634.438 343.938L634.688 364.938C634.729 369.521 634.979 372.146 635.438 372.812C635.938 373.438 637.021 373.875 638.688 374.125C641.354 374.5 643.083 374.958 643.875 375.5C644.25 375.75 644.438 376.125 644.438 376.625C644.438 376.958 644.417 377.354 644.375 377.812C639.625 377.479 636.438 377.312 634.812 377.312C633.146 377.312 631.646 377.333 630.312 377.375L627.188 377.562H625.25L618.25 377.812C618.167 377.521 618.125 377.271 618.125 377.062C618.125 376.854 618.208 376.438 618.375 375.812Z" fill="black"/>
<path d="M722.125 372.938C722.125 371.104 722.792 369.5 724.125 368.125C725.5 366.75 727.083 366.062 728.875 366.062C730.625 366.062 732.104 366.708 733.312 368C734.521 369.292 735.125 370.917 735.125 372.875C735.125 374.833 734.479 376.479 733.188 377.812C731.938 379.146 730.417 379.812 728.625 379.812C726.875 379.812 725.354 379.146 724.062 377.812C722.771 376.438 722.125 374.812 722.125 372.938Z" fill="black"/>
<path d="M363.771 128.594C363.771 125.293 364.195 122.373 365.041 119.834C365.93 117.295 367.115 114.967 368.596 112.852C370.077 110.736 371.791 108.747 373.737 106.885C375.684 105.065 377.736 103.203 379.895 101.299V87.6514C378.583 88.9632 377.038 90.0635 375.261 90.9521C373.526 91.8831 371.516 92.3486 369.23 92.3486C366.691 92.3486 364.449 91.8408 362.502 90.8252C360.598 89.8096 358.99 88.4342 357.678 86.6992C356.366 84.9219 355.371 82.8483 354.694 80.4785C354.06 78.0664 353.742 75.485 353.742 72.7344C353.742 67.3177 354.61 62.4512 356.345 58.1348C358.08 53.8184 360.386 50.1579 363.264 47.1533C366.141 44.1064 369.421 41.779 373.103 40.1709C376.826 38.5628 380.677 37.7588 384.655 37.7588C386.433 37.7588 387.871 38.2454 388.972 39.2188C390.072 40.1497 390.622 41.4827 390.622 43.2178C390.622 44.318 390.495 45.1009 390.241 45.5664C390.03 45.9896 389.606 46.2012 388.972 46.2012C388.379 46.2012 387.766 46.1589 387.131 46.0742C386.496 45.9896 385.84 45.9473 385.163 45.9473C382.709 45.9473 380.212 46.4974 377.673 47.5977C375.134 48.6556 372.827 50.306 370.754 52.5488C368.723 54.7493 367.051 57.5635 365.739 60.9912C364.427 64.3766 363.771 68.418 363.771 73.1152C363.771 76.5007 364.427 79.1243 365.739 80.9863C367.051 82.8483 368.85 83.7793 371.135 83.7793C372.447 83.7793 373.589 83.3984 374.562 82.6367C375.536 81.8327 376.382 80.8382 377.102 79.6533C377.821 78.4684 378.392 77.1777 378.815 75.7812C379.281 74.3424 379.641 72.9671 379.895 71.6553V56.9922C379.895 55.765 379.789 54.8763 379.577 54.3262C379.408 53.776 379.323 53.2682 379.323 52.8027C379.323 52.168 379.662 51.639 380.339 51.2158C381.016 50.7926 381.82 50.5811 382.751 50.5811C384.909 50.5811 386.602 51.1523 387.829 52.2949C389.099 53.3952 389.733 54.7493 389.733 56.3574V91.7139C392.103 89.0902 394.261 86.1068 396.208 82.7637C398.197 79.4206 399.847 75.5062 401.159 71.0205C401.582 69.6663 402.048 68.693 402.556 68.1006C403.063 67.4658 403.656 67.1484 404.333 67.1484C404.841 67.1484 405.349 67.3177 405.856 67.6562C406.407 67.9525 406.893 68.3545 407.316 68.8623C407.782 69.3701 408.142 69.9414 408.396 70.5762C408.692 71.2109 408.84 71.8457 408.84 72.4805C408.84 72.5651 408.84 72.7344 408.84 72.9883C408.84 73.2422 408.798 73.4961 408.713 73.75C407.613 77.5163 406.322 80.8594 404.841 83.7793C403.402 86.6569 401.857 89.2383 400.207 91.5234C398.557 93.8086 396.843 95.8398 395.065 97.6172C393.288 99.4368 391.511 101.108 389.733 102.632V125.103C389.733 128.53 389.331 131.408 388.527 133.735C387.766 136.105 386.75 138.009 385.48 139.448C384.211 140.929 382.751 141.987 381.101 142.622C379.493 143.257 377.863 143.574 376.213 143.574C374.393 143.574 372.722 143.172 371.198 142.368C369.675 141.606 368.363 140.549 367.263 139.194C366.162 137.84 365.295 136.253 364.66 134.434C364.068 132.614 363.771 130.667 363.771 128.594ZM376.213 135.386C377.271 135.386 378.054 134.963 378.562 134.116C379.069 133.27 379.408 132.275 379.577 131.133C379.789 130.033 379.895 128.911 379.895 127.769C379.895 126.626 379.895 125.737 379.895 125.103V111.201C377.779 113.317 376.065 115.708 374.753 118.374C373.483 121.04 372.849 124.32 372.849 128.213C372.849 130.244 373.145 131.937 373.737 133.291C374.33 134.688 375.155 135.386 376.213 135.386Z" fill="black"/>
<path d="M449.338 68.5449C449.423 68.0371 449.698 67.6139 450.163 67.2754C450.671 66.9368 451.242 66.7041 451.877 66.5771C452.512 66.4502 453.168 66.4502 453.845 66.5771C454.564 66.7041 455.178 67.0003 455.686 67.4658C456.236 67.889 456.617 68.5026 456.828 69.3066C457.082 70.0684 457.061 71.0628 456.765 72.29C456.384 74.0674 455.749 75.7389 454.86 77.3047C454.014 78.8281 452.935 80.1823 451.623 81.3672C450.311 82.5521 448.767 83.4831 446.989 84.1602C445.212 84.8372 443.223 85.1758 441.022 85.1758C439.838 85.1758 438.716 85.1123 437.658 84.9854C436.643 84.8584 435.648 84.6257 434.675 84.2871C433.067 87.0801 430.993 89.3229 428.454 91.0156C425.915 92.7507 422.784 93.6182 419.06 93.6182C415.759 93.6182 412.924 92.9622 410.554 91.6504C408.184 90.3809 406.216 88.6458 404.65 86.4453C403.085 84.2025 401.921 81.6211 401.159 78.7012C400.44 75.7812 400.08 72.6921 400.08 69.4336C400.08 64.6517 400.63 60.3776 401.73 56.6113C402.873 52.8027 404.185 49.5866 405.666 46.9629C407.147 44.2969 408.607 42.2656 410.046 40.8691C411.527 39.4727 412.627 38.7744 413.347 38.7744C414.193 38.7744 414.955 39.1553 415.632 39.917C416.351 40.6364 416.859 41.5039 417.155 42.5195C417.494 43.4928 417.578 44.4873 417.409 45.5029C417.282 46.5186 416.796 47.3014 415.949 47.8516C415.441 48.6556 414.828 49.5866 414.108 50.6445C413.431 51.7025 412.775 53.0355 412.141 54.6436C411.548 56.2093 411.04 58.1348 410.617 60.4199C410.194 62.7051 409.982 65.4557 409.982 68.6719C409.982 71.4225 410.215 73.8135 410.681 75.8447C411.188 77.876 411.866 79.5898 412.712 80.9863C413.601 82.3405 414.595 83.3561 415.695 84.0332C416.838 84.7103 418.044 85.0488 419.313 85.0488C421.175 85.0488 422.699 84.6045 423.884 83.7158C425.111 82.7848 426.148 81.5788 426.994 80.0977C423.947 77.474 421.62 74.152 420.012 70.1318C418.446 66.0693 417.663 61.6895 417.663 56.9922C417.663 54.9609 417.875 53.0355 418.298 51.2158C418.763 49.3538 419.419 47.7246 420.266 46.3281C421.154 44.9316 422.255 43.8314 423.566 43.0273C424.878 42.181 426.402 41.7578 428.137 41.7578C429.66 41.7578 431.099 42.3079 432.453 43.4082C433.807 44.5085 434.992 46.0319 436.008 47.9785C437.023 49.9251 437.806 52.2314 438.356 54.8975C438.949 57.5635 439.245 60.4622 439.245 63.5938C439.245 66.0059 439.097 68.3968 438.801 70.7666C438.505 73.1364 438.039 75.4215 437.404 77.6221C437.87 77.7913 438.293 77.8971 438.674 77.9395C439.097 77.9395 439.541 77.9395 440.007 77.9395C441.403 77.9395 442.631 77.6855 443.688 77.1777C444.789 76.6699 445.72 75.9928 446.481 75.1465C447.243 74.3001 447.857 73.3057 448.322 72.1631C448.788 71.0205 449.126 69.8145 449.338 68.5449ZM424.519 56.4844C424.519 59.4043 424.963 62.1761 425.852 64.7998C426.783 67.4235 427.989 69.7087 429.47 71.6553C429.724 69.5817 429.851 67.5928 429.851 65.6885C429.851 63.488 429.808 61.4567 429.724 59.5947C429.681 57.6904 429.533 56.0612 429.279 54.707C429.068 53.3529 428.75 52.2949 428.327 51.5332C427.946 50.7292 427.417 50.3271 426.74 50.3271C425.259 50.3271 424.519 52.3796 424.519 56.4844Z" fill="black"/>
<path d="M486.154 85.0488C487.466 85.0488 488.588 84.5833 489.519 83.6523C490.492 82.7214 491.317 81.5576 491.994 80.1611C492.714 78.7646 493.285 77.2624 493.708 75.6543C494.174 74.0039 494.554 72.4593 494.851 71.0205C495.147 69.6663 495.57 68.693 496.12 68.1006C496.713 67.4658 497.347 67.1484 498.024 67.1484C498.532 67.1484 499.04 67.3177 499.548 67.6562C500.098 67.9525 500.585 68.3545 501.008 68.8623C501.473 69.3701 501.833 69.9414 502.087 70.5762C502.383 71.2109 502.531 71.8457 502.531 72.4805C502.531 72.5651 502.531 72.6709 502.531 72.7979C502.531 72.9248 502.489 73.1152 502.404 73.3691C501.854 75.5273 501.092 77.7913 500.119 80.1611C499.188 82.5309 497.982 84.7103 496.501 86.6992C495.02 88.6882 493.221 90.3385 491.105 91.6504C489.032 92.9622 486.599 93.6182 483.806 93.6182C481.521 93.6182 479.532 93.1315 477.839 92.1582C476.146 91.1849 474.813 89.8942 473.84 88.2861C472.528 89.7673 470.941 91.0156 469.079 92.0312C467.259 93.0892 465.122 93.6182 462.668 93.6182C460.129 93.6182 457.886 93.1104 455.939 92.0947C454.035 91.0791 452.427 89.7038 451.115 87.9688C449.803 86.1914 448.809 84.1178 448.132 81.748C447.497 79.3359 447.18 76.7546 447.18 74.0039C447.18 68.5872 448.047 63.7207 449.782 59.4043C451.517 55.0879 453.824 51.4274 456.701 48.4229C459.579 45.376 462.858 43.0485 466.54 41.4404C470.264 39.8324 474.115 39.0283 478.093 39.0283C479.87 39.0283 481.309 39.515 482.409 40.4883C483.509 41.4616 484.06 42.7946 484.06 44.4873C484.06 45.5876 483.933 46.3704 483.679 46.8359C483.467 47.2591 483.044 47.4707 482.409 47.4707C481.817 47.4707 481.203 47.4284 480.568 47.3438C479.934 47.2591 479.278 47.2168 478.601 47.2168C476.146 47.2168 473.649 47.7669 471.11 48.8672C468.571 49.9251 466.265 51.5755 464.191 53.8184C462.16 56.0189 460.489 58.833 459.177 62.2607C457.865 65.6462 457.209 69.6875 457.209 74.3848C457.209 77.8125 457.865 80.4574 459.177 82.3193C460.489 84.139 462.287 85.0488 464.572 85.0488C466.35 85.0488 467.831 84.3929 469.016 83.0811C470.201 81.7269 471.153 80.14 471.872 78.3203V58.2617C471.872 57.627 471.83 57.098 471.745 56.6748C471.703 56.2516 471.639 55.8919 471.555 55.5957C471.512 55.2995 471.47 55.0456 471.428 54.834C471.385 54.5801 471.364 54.3473 471.364 54.1357C471.364 53.4587 471.682 52.9297 472.316 52.5488C472.993 52.1257 473.798 51.9141 474.729 51.9141C476.887 51.9141 478.601 52.4854 479.87 53.6279C481.14 54.7282 481.774 56.0612 481.774 57.627V79.082C481.774 79.8014 481.859 80.5208 482.028 81.2402C482.198 81.9173 482.451 82.5521 482.79 83.1445C483.129 83.6947 483.573 84.1602 484.123 84.541C484.715 84.8796 485.393 85.0488 486.154 85.0488Z" fill="black"/>
<path d="M505.324 51.5332C505.79 50.6445 506.234 49.4596 506.657 47.9785C507.123 46.4551 507.546 44.7835 507.927 42.9639C508.35 41.1442 508.731 39.2399 509.069 37.251C509.408 35.262 509.704 33.3154 509.958 31.4111C510.212 29.5068 510.402 27.7295 510.529 26.0791C510.699 24.3864 510.783 22.9476 510.783 21.7627C510.783 17.4463 510.466 14.2936 509.831 12.3047C509.196 10.2734 508.35 9.25781 507.292 9.25781C506.953 9.25781 506.657 9.42708 506.403 9.76562C506.149 10.1042 505.938 10.5485 505.769 11.0986C505.599 11.6064 505.472 12.1777 505.388 12.8125C505.345 13.4049 505.324 13.9551 505.324 14.4629V51.5332ZM523.796 71.1475C524.05 69.8779 524.431 68.9681 524.938 68.418C525.489 67.8255 526.06 67.5081 526.652 67.4658C527.287 67.3812 527.922 67.5293 528.557 67.9102C529.191 68.2487 529.742 68.7142 530.207 69.3066C530.673 69.8991 531.011 70.5762 531.223 71.3379C531.477 72.0573 531.519 72.7767 531.35 73.4961C530.757 75.2311 529.911 77.2624 528.811 79.5898C527.71 81.9173 526.314 84.1178 524.621 86.1914C522.928 88.265 520.939 90.0212 518.654 91.46C516.369 92.8988 513.745 93.6182 510.783 93.6182C508.286 93.6182 506.086 93.195 504.182 92.3486C502.277 91.5446 500.669 90.402 499.357 88.9209C498.088 87.3975 497.115 85.599 496.438 83.5254C495.803 81.4095 495.485 79.0609 495.485 76.4795V17.3193C495.485 14.9072 495.782 12.6855 496.374 10.6543C497.009 8.58073 497.855 6.82454 498.913 5.38574C500.013 3.90462 501.283 2.76204 502.722 1.95801C504.16 1.11165 505.684 0.688477 507.292 0.688477C509.196 0.688477 510.804 1.04818 512.116 1.76758C513.428 2.44466 514.507 3.35449 515.354 4.49707C516.2 5.63965 516.856 6.9515 517.321 8.43262C517.829 9.91374 518.189 11.4372 518.4 13.0029C518.612 14.5264 518.739 16.0498 518.781 17.5732C518.824 19.0544 518.845 20.4085 518.845 21.6357C518.845 24.8096 518.549 28.1527 517.956 31.665C517.364 35.1351 516.602 38.5628 515.671 41.9482C514.782 45.3337 513.788 48.5921 512.688 51.7236C511.63 54.8128 510.593 57.5635 509.577 59.9756C508.604 62.3877 507.715 64.3555 506.911 65.8789C506.149 67.4023 505.62 68.291 505.324 68.5449V76.0986C505.324 78.7223 505.874 80.8805 506.975 82.5732C508.075 84.2236 509.831 85.0488 512.243 85.0488C513.724 85.0488 515.1 84.6045 516.369 83.7158C517.681 82.7848 518.824 81.6423 519.797 80.2881C520.812 78.8916 521.659 77.3893 522.336 75.7812C523.013 74.1309 523.5 72.5863 523.796 71.1475Z" fill="black"/>
</svg>
