<svg width="1918" height="1090" viewBox="0 0 1918 1090" fill="none" xmlns="http://www.w3.org/2000/svg">
<path fill-rule="evenodd" clip-rule="evenodd" d="M1491.31 252.435C1510.62 239.457 1520.11 225.639 1521.08 211.852C1522.04 198.066 1514.57 183.061 1497.25 167.521C1480.02 152.065 1454.09 137.077 1421 123.555C1354.89 96.544 1261.9 76.0616 1157.74 68.7786C1053.59 61.4957 958.651 68.8361 889.429 86.384C854.776 95.1688 827.011 106.402 807.802 119.31C788.488 132.288 778.998 146.107 778.034 159.893C777.07 173.68 784.544 188.685 801.864 204.224C819.09 219.68 845.021 234.668 878.115 248.191C944.22 275.201 1037.22 295.684 1141.37 302.967C1245.52 310.25 1340.46 302.909 1409.68 285.361C1444.34 276.577 1472.1 265.343 1491.31 252.435ZM1140.82 310.773C1350.32 325.422 1524.06 281.378 1528.88 212.398C1533.71 143.417 1367.79 75.622 1158.29 60.9725C948.793 46.323 775.052 90.367 770.228 159.348C765.404 228.328 931.325 296.123 1140.82 310.773Z" fill="#E79A41" fill-opacity="0.6"/>
<path fill-rule="evenodd" clip-rule="evenodd" d="M1382.23 218.484C1434.37 172.938 1457.38 126.019 1446.18 87.7702C1434.97 49.5216 1390.28 22.4346 1321.8 12.2226C1254.05 2.118 1166.02 9.16035 1073.97 36.1251C981.92 63.0898 904.007 104.657 852.411 149.725C800.267 195.271 777.256 242.19 788.46 280.439C799.665 318.687 844.355 345.774 912.832 355.986C980.59 366.091 1068.62 359.048 1160.67 332.084C1252.72 305.119 1330.63 263.551 1382.23 218.484ZM1162.87 339.593C1348.64 285.174 1478.84 171.444 1453.69 85.5703C1428.53 -0.30381 1257.54 -25.8033 1071.77 28.6155C885.999 83.0343 755.795 196.764 780.951 282.638C806.106 368.513 977.096 394.012 1162.87 339.593Z" fill="#FF8A00" fill-opacity="0.39"/>
<path d="M565.694 245.697C567.216 244.827 568.574 244.393 569.77 244.393H573.519C574.28 244.393 575.584 244.338 577.432 244.229C585.801 243.469 590.746 242.708 592.267 241.947C596.071 239.882 599.332 236.296 602.049 231.188C607.7 220.102 614.058 204.397 621.123 184.074C624.492 174.401 626.611 168.532 627.48 166.467C630.198 159.946 632.806 153.099 635.306 145.926L650.63 103.05C653.021 96.3121 658.781 80.8792 667.911 56.7516C670.193 50.6653 672.964 42.5141 676.225 32.2979L680.952 31.9719L686.658 32.1349C691.332 41.3729 695.462 51.3174 699.048 61.9683C701.004 67.6198 704.211 76.0428 708.667 87.2371L733.446 154.24L746.651 190.594C753.607 211.244 758.172 223.96 760.345 228.742C762.519 233.416 764.53 236.513 766.377 238.035C766.921 238.469 768.931 239.121 772.409 239.991C775.996 240.86 778.495 241.512 779.908 241.947C784.908 243.36 788.385 244.556 790.342 245.534C790.776 246.729 790.994 247.653 790.994 248.305C790.994 248.849 790.831 249.664 790.505 250.75C787.027 250.859 784.582 250.913 783.169 250.913C777.626 250.913 767.844 250.75 753.824 250.424L737.522 249.935L717.796 250.261C716.492 250.261 715.133 250.207 713.72 250.098C712.416 249.881 711.275 249.772 710.297 249.772H706.71C705.515 249.664 704.428 249.338 703.45 248.794C703.45 247.273 703.722 245.805 704.265 244.393C705.569 243.74 706.765 243.36 707.852 243.251L724.969 242.11C729.425 241.893 732.794 241.295 735.077 240.317C735.729 238.361 736.055 236.893 736.055 235.915C736.055 233.959 734.642 228.905 731.816 220.754C729.86 215.32 728.121 210.157 726.599 205.267C725.186 200.376 719.426 184.291 709.319 157.012C704.863 156.251 700.95 155.87 697.581 155.87L662.694 156.196L652.423 156.033C648.728 156.033 644.652 156.305 640.196 156.848C638.784 160.109 637.86 162.446 637.425 163.859L623.079 208.69C616.993 225.753 613.949 235.154 613.949 236.893C613.949 237.872 614.439 239.502 615.417 241.784C617.699 242.436 620.742 243.034 624.546 243.577L646.717 245.534C647.913 246.512 648.511 247.381 648.511 248.142C648.511 248.685 648.348 249.501 648.022 250.587C643.131 250.696 639.381 250.75 636.773 250.75C628.078 250.75 617.971 250.479 606.45 249.935C601.125 249.718 597.321 249.609 595.039 249.609C592.756 249.609 588.789 249.718 583.138 249.935C579.443 250.153 576.78 250.261 575.15 250.261C572.541 250.261 569.172 250.098 565.042 249.772V248.794C565.042 248.033 565.26 247.001 565.694 245.697ZM643.457 147.882C655.086 148.534 668.345 148.86 683.235 148.86C691.712 148.86 699.157 148.589 705.569 148.045C704.482 143.807 703.232 139.84 701.82 136.144C694.755 117.234 690.843 106.8 690.082 104.844L675.247 67.1851L673.616 64.2507C672.964 65.5549 670.573 71.152 666.443 81.0422C659.488 97.9967 654.488 111.202 651.445 120.657C650.032 124.896 648.565 129.134 647.043 133.373C645.522 137.503 644.544 140.437 644.109 142.176C643.783 143.807 643.24 145.491 642.479 147.23L643.457 147.882Z" fill="black"/>
<path d="M0.163024 498.058L62.7644 498.221C63.9599 498.221 64.775 498.439 65.2097 498.873C65.6444 499.308 65.8618 499.96 65.8618 500.83C65.8618 502.895 65.0467 504.416 63.4165 505.394C55.8087 505.938 51.0809 506.862 49.2333 508.166C47.3857 509.47 46.4619 511.263 46.4619 513.546C46.4619 514.632 46.5706 515.665 46.788 516.643C47.114 517.947 48.6899 521.806 51.5157 528.218C55.2109 536.804 61.7862 550.715 71.2416 569.952L90.6415 609.404C101.727 590.058 110.693 572.071 117.541 555.443L107.596 529.359C106.509 526.968 105.096 523.381 103.357 518.599C101.727 513.817 100.423 511.046 99.4448 510.285C98.5754 509.416 95.2605 508.166 89.5003 506.536C83.7401 504.905 80.3166 503.655 79.2298 502.786L79.0668 501.645C79.0668 500.993 79.3928 500.069 80.0449 498.873C82.6533 498.221 84.7183 497.895 86.2399 497.895L95.5322 498.058H115.91L122.105 497.895L142.157 498.221C143.787 498.221 145.146 498.167 146.233 498.058H149.004C149.656 498.058 150.58 498.113 151.776 498.221L151.45 503.438C149.819 504.416 147.102 505.123 143.298 505.557C136.125 506.318 130.637 507.677 126.833 509.633C125.637 510.937 125.04 512.078 125.04 513.057C125.04 515.448 125.692 518.436 126.996 522.023C127.431 523.11 128.572 526.479 130.419 532.13L147.863 578.103C152.971 591.797 156.884 601.361 159.601 606.796C164.165 598.427 170.578 583.374 178.838 561.638C181.772 554.03 185.685 544.955 190.575 534.413C193.727 527.783 195.303 522.077 195.303 517.295C195.303 514.795 194.379 512.676 192.532 510.937C190.684 509.198 186.391 507.568 179.653 506.047C175.632 505.177 172.643 504.362 170.686 503.601C170.143 502.732 169.871 502.025 169.871 501.482C169.871 500.504 170.469 499.417 171.665 498.221H174.11L187.315 498.058C187.858 498.058 190.358 498.167 194.814 498.384C199.27 498.493 203.617 498.547 207.856 498.547C211.116 498.547 214.866 498.439 219.105 498.221H227.256C227.908 498.439 228.343 498.71 228.56 499.036C228.886 499.363 229.049 499.906 229.049 500.667C229.049 501.862 228.886 503.166 228.56 504.579C223.235 505.231 219.05 506.481 216.007 508.329C212.964 510.068 208.834 514.959 203.617 523.001L174.436 593.102C171.719 599.622 166.991 609.621 160.253 623.098C158.84 625.924 157.753 628.206 156.992 629.945C156.34 631.684 155.688 632.825 155.036 633.368C154.384 633.912 153.515 634.184 152.428 634.184C151.667 634.184 150.634 633.966 149.33 633.531C146.287 627.554 139.549 611.088 129.115 584.135C126.289 576.853 123.681 570.658 121.29 565.55C103.466 602.611 91.7827 625.38 86.2399 633.858C84.7183 634.075 83.5771 634.184 82.8163 634.184C82.0556 634.184 80.9687 634.075 79.5559 633.858L48.7443 569.463L20.5411 514.361C18.5848 510.992 17.0632 508.927 15.9764 508.166C14.1288 506.97 10.8683 505.992 6.19492 505.231C3.58653 504.797 1.5759 504.471 0.163024 504.253C0.0543414 502.623 0 501.373 0 500.504C0 499.96 0.0543414 499.145 0.163024 498.058Z" fill="black"/>
<path d="M249.427 426.165C249.427 422.578 250.786 419.481 253.503 416.872C256.329 414.264 259.698 412.96 263.61 412.96C267.632 412.96 271.164 414.427 274.207 417.361C277.25 420.296 278.772 423.448 278.772 426.817C278.772 430.186 277.25 433.392 274.207 436.435C271.164 439.37 267.632 440.837 263.61 440.837C259.589 440.837 256.22 439.478 253.503 436.761C250.786 434.044 249.427 430.512 249.427 426.165ZM235.733 510.611L235.896 505.883C242.961 503.819 246.764 502.623 247.308 502.297C251.22 500.558 255.296 497.895 259.535 494.309C263.882 490.722 267.523 486.701 270.457 482.245C271.762 482.028 272.794 481.919 273.555 481.919L275.511 482.082C275.946 487.299 276.163 491.103 276.163 493.494C276.163 494.037 276.054 496.482 275.837 500.83V509.47L276 556.421L275.511 606.143C275.402 610.165 276.054 612.99 277.467 614.621C278.88 616.142 283.064 617.881 290.02 619.837C294.368 621.033 297.628 622.065 299.802 622.935C300.128 623.696 300.291 624.348 300.291 624.891C300.291 625.543 300.019 626.358 299.476 627.337C295.237 627.228 289.803 626.956 283.173 626.521C274.153 625.761 268.175 625.38 265.241 625.38C263.828 625.38 255.133 625.652 239.157 626.195C235.896 626.304 232.744 626.576 229.701 627.011C229.158 627.011 228.288 626.848 227.093 626.521C226.549 625.761 226.278 625.109 226.278 624.565C226.278 623.044 227.31 621.848 229.375 620.979C229.81 620.761 235.353 619.511 246.004 617.229C249.482 616.577 251.764 615.49 252.851 613.969C254.698 611.686 255.622 608.045 255.622 603.046C255.839 594.677 255.948 571.745 255.948 534.25C255.948 526.751 255.622 522.077 254.97 520.23C254.427 518.925 252.959 517.458 250.568 515.828C248.286 514.089 243.341 512.35 235.733 510.611Z" fill="black"/>
<path d="M349.524 465.453L354.578 465.616L355.23 481.104L354.904 501.156C356.969 501.264 358.273 501.319 358.816 501.319C361.642 501.319 367.022 501.101 374.956 500.667C380.064 500.341 384.955 500.178 389.628 500.178C391.802 500.178 395.062 500.232 399.41 500.341C399.627 502.514 399.736 504.253 399.736 505.557C399.736 506.97 399.41 509.198 398.757 512.241H395.986L370.717 513.057L358.164 513.383L355.23 513.709C354.36 516.426 353.926 519.578 353.926 523.164L354.415 547.618L354.089 590.656C354.089 601.959 355.556 609.458 358.49 613.153C361.316 616.957 365.555 618.859 371.206 618.859C374.032 618.859 379.358 617.99 387.183 616.251C389.574 615.708 392.78 613.914 396.801 610.871H398.268C399.246 610.871 400.007 611.197 400.551 611.849C401.203 612.393 401.529 613.153 401.529 614.132L401.366 615.273C396.692 620.381 391.313 624.13 385.226 626.521C379.249 628.804 371.261 629.945 361.262 629.945C354.197 629.945 348.329 628.315 343.655 625.054C339.091 621.794 336.156 617.935 334.852 613.479C333.548 609.023 332.896 599.296 332.896 584.298L333.548 547.618L333.385 530.011V523.49C333.385 520.447 333.276 517.404 333.059 514.361L330.287 514.198L316.919 514.687L315.615 514.85C314.42 514.85 313.496 514.578 312.844 514.035C312.3 513.491 312.029 512.839 312.029 512.078C312.029 510.774 312.409 509.742 313.17 508.981C314.039 508.111 316.539 506.807 320.669 505.068C323.495 503.873 326.755 501.645 330.45 498.384C334.254 495.015 337.46 491.32 340.069 487.299C341.373 485.125 343.22 480.995 345.612 474.909C347.35 470.453 348.655 467.301 349.524 465.453Z" fill="black"/>
<path d="M406.583 622.609C419.298 620.327 426.635 618.588 428.591 617.392C429.786 616.631 430.384 614.892 430.384 612.175L430.221 601.416L430.384 582.342L430.058 533.761L430.221 515.665V502.786L430.71 486.973C430.71 462.193 430.438 447.412 429.895 442.63C429.46 437.739 428.537 434.696 427.124 433.501C424.515 431.001 417.342 428.393 405.604 425.676V424.86C405.604 424.1 405.713 423.013 405.93 421.6C407.452 421.383 408.919 421.111 410.332 420.785C411.745 420.459 413.104 420.241 414.408 420.133C427.341 416.437 436.742 412.851 442.611 409.373H450.599C450.817 412.416 450.925 422.035 450.925 438.228L450.762 458.932L450.925 485.668L450.273 518.599C450.273 520.556 450.382 522.729 450.599 525.12C457.446 517.187 462.446 511.915 465.597 509.307C471.249 504.742 477.281 501.156 483.693 498.547C490.105 495.83 496.844 494.472 503.908 494.472C517.276 494.472 528.199 500.123 536.676 511.426C541.567 518.056 544.012 527.457 544.012 539.63L543.523 556.258L543.686 565.55L543.034 581.69C542.599 595.058 542.382 602.992 542.382 605.491C542.382 608.317 542.491 612.121 542.708 616.903L552 619.022C558.195 620.327 562.977 621.522 566.346 622.609L566.183 627.663L531.459 626.685C529.503 626.685 524.177 626.902 515.483 627.337C510.157 627.554 507.06 627.663 506.19 627.663H502.604C502.06 626.685 501.789 625.869 501.789 625.217V623.75C503.31 621.794 506.136 620.49 510.266 619.837L520.047 617.555C521.352 616.468 522.112 615.327 522.33 614.132C522.765 611.306 523.254 597.286 523.797 572.071L524.123 560.008C524.558 547.292 523.58 536.749 521.189 528.381C519.667 522.621 516.189 518.056 510.755 514.687C505.43 511.209 499.235 509.47 492.17 509.47C486.301 509.47 480.759 510.72 475.542 513.22C471.955 515.067 467.662 518.273 462.663 522.838C457.664 527.403 454.186 531.315 452.229 534.576C450.925 536.749 450.273 540.336 450.273 545.335L450.436 556.747L450.11 568.648C450.11 569.626 450.273 576.419 450.599 589.026L450.436 599.459L450.762 610.871C450.871 612.501 451.034 613.697 451.251 614.458L474.238 620C475.433 620.327 477.226 620.979 479.617 621.957L480.107 623.75C480.107 624.293 479.835 625.163 479.291 626.358C476.14 626.467 473.749 626.521 472.118 626.521L459.402 626.358L431.362 626.685L410.332 627.337C409.245 627.228 407.615 627.119 405.441 627.011L405.278 625.869C405.278 625 405.713 623.913 406.583 622.609Z" fill="black"/>
<path d="M582.812 560.986C582.812 553.595 584.333 545.716 587.377 537.347C590.528 528.87 595.256 521.316 601.56 514.687C607.863 507.948 614.547 502.949 621.612 499.689C631.502 495.124 643.566 492.842 657.803 492.842C678.127 492.842 695.081 499.797 708.667 513.709C722.361 527.62 729.208 544.357 729.208 563.92C729.208 581.309 722.035 596.851 707.688 610.545C693.451 624.13 675.41 630.923 653.564 630.923C640.088 630.923 627.372 627.391 615.417 620.327C606.505 615.001 598.843 607.122 592.43 596.688C586.018 586.254 582.812 574.354 582.812 560.986ZM654.869 624.565C663.128 624.565 671.062 622.337 678.67 617.881C686.387 613.425 692.527 606.306 697.092 596.525C701.657 586.635 703.939 575.223 703.939 562.29C703.939 553.813 702.146 543.977 698.559 532.782C695.081 521.588 689.647 513.22 682.257 507.677C674.975 502.025 666.389 499.199 656.499 499.199C649.326 499.199 641.99 500.884 634.491 504.253C627.1 507.622 620.796 514.089 615.58 523.653C610.472 533.217 607.918 546.803 607.918 564.409C607.918 584.189 612.374 599.188 621.286 609.404C630.306 619.511 641.501 624.565 654.869 624.565Z" fill="black"/>
<path d="M746.814 498.547H759.041L764.421 498.873L768.66 498.547C779.854 498.547 786.81 498.656 789.527 498.873L789.69 501.971C789.69 517.295 789.472 532.13 789.038 546.477C788.712 554.954 788.549 559.79 788.549 560.986C788.549 580.114 789.146 592.069 790.342 596.851C791.646 601.633 794.58 605.491 799.145 608.426C803.818 611.252 809.416 612.664 815.937 612.664C823.87 612.664 831.424 611.034 838.597 607.774C845.879 604.405 852.074 600.329 857.182 595.547C857.725 591.417 857.997 586.852 857.997 581.853C857.997 565.659 858.16 554.736 858.486 549.085C858.595 545.716 858.649 542.781 858.649 540.282C858.649 522.675 857.779 512.73 856.041 510.448C854.302 508.166 847.672 506.427 836.152 505.231C832.348 504.797 829.576 504.416 827.837 504.09C826.968 502.677 826.533 501.591 826.533 500.83L827.022 499.036C829.848 498.71 832.619 498.547 835.336 498.547L861.257 498.873C870.495 498.656 875.386 498.547 875.93 498.547C877.125 498.547 878.266 498.602 879.353 498.71L879.679 510.611C878.918 527.131 878.484 547.563 878.375 571.908L878.049 585.113L878.701 607.285C879.679 609.024 880.549 610.056 881.309 610.382C882.614 610.925 885.276 611.197 889.297 611.197H890.765C892.178 611.197 896.199 611.523 902.829 612.175C902.937 613.588 902.992 614.621 902.992 615.273V617.066C888.428 620.218 876.636 623.37 867.615 626.521C864.029 627.717 860.986 628.586 858.486 629.13C857.942 625.326 857.671 622.989 857.671 622.12V608.915C857.671 608.371 857.616 606.904 857.508 604.513C856.095 605.491 854.465 606.687 852.617 608.1C844.031 614.729 834.956 620.327 825.392 624.891C818.98 628.043 812.785 629.619 806.807 629.619C795.395 629.619 786.103 625.38 778.93 616.903C771.648 608.426 768.007 593.971 768.007 573.539C768.007 572.452 768.062 570.495 768.17 567.67C768.605 562.453 768.823 558.812 768.823 556.747C768.823 555.986 768.768 553.595 768.66 549.574C768.551 547.835 768.497 546.314 768.497 545.009C768.497 544.031 768.551 541.858 768.66 538.488C768.768 535.01 768.823 532.565 768.823 531.152C768.823 529.305 768.768 527.674 768.66 526.262L768.333 517.621L768.497 513.057C768.497 511.318 767.627 509.742 765.888 508.329C759.041 506.481 754.531 505.449 752.357 505.231C750.292 504.905 748.445 504.416 746.814 503.764V498.547Z" fill="black"/>
<path d="M951.736 465.453L956.79 465.616L957.442 481.104L957.116 501.156C959.181 501.264 960.485 501.319 961.028 501.319C963.854 501.319 969.234 501.101 977.168 500.667C982.276 500.341 987.166 500.178 991.84 500.178C994.013 500.178 997.274 500.232 1001.62 500.341C1001.84 502.514 1001.95 504.253 1001.95 505.557C1001.95 506.97 1001.62 509.198 1000.97 512.241H998.198L972.929 513.057L960.376 513.383L957.442 513.709C956.572 516.426 956.137 519.578 956.137 523.164L956.627 547.618L956.3 590.656C956.3 601.959 957.768 609.458 960.702 613.153C963.528 616.957 967.767 618.859 973.418 618.859C976.244 618.859 981.569 617.99 989.394 616.251C991.785 615.708 994.992 613.914 999.013 610.871H1000.48C1001.46 610.871 1002.22 611.197 1002.76 611.849C1003.41 612.393 1003.74 613.153 1003.74 614.132L1003.58 615.273C998.904 620.381 993.524 624.13 987.438 626.521C981.461 628.804 973.472 629.945 963.474 629.945C956.409 629.945 950.54 628.315 945.867 625.054C941.302 621.794 938.368 617.935 937.064 613.479C935.759 609.023 935.107 599.296 935.107 584.298L935.759 547.618L935.596 530.011V523.49C935.596 520.447 935.488 517.404 935.27 514.361L932.499 514.198L919.131 514.687L917.827 514.85C916.631 514.85 915.707 514.578 915.055 514.035C914.512 513.491 914.24 512.839 914.24 512.078C914.24 510.774 914.621 509.742 915.381 508.981C916.251 508.111 918.751 506.807 922.88 505.068C925.706 503.873 928.967 501.645 932.662 498.384C936.466 495.015 939.672 491.32 942.28 487.299C943.585 485.125 945.432 480.995 947.823 474.909C949.562 470.453 950.866 467.301 951.736 465.453Z" fill="black"/>
<path d="M1218.61 604.35C1219.26 605.763 1219.58 606.796 1219.58 607.448C1219.58 609.078 1218.28 611.958 1215.67 616.088C1212.3 621.522 1208.55 625.489 1204.42 627.989C1201.82 629.619 1198.23 630.434 1193.66 630.434C1185.84 630.434 1179.97 628.043 1176.06 623.261C1173.67 620.435 1171.98 615.381 1171 608.1L1152.74 620.816C1146.33 624.511 1141.44 626.847 1138.07 627.826C1132.64 629.238 1126.12 629.945 1118.51 629.945C1112.97 629.945 1108.57 628.315 1105.3 625.054C1102.15 621.685 1100.58 617.392 1100.58 612.175C1100.58 604.676 1105.14 595.71 1114.27 585.276C1123.51 574.843 1136.01 566.311 1151.77 559.682C1162.85 555.008 1169.64 552.019 1172.14 550.715C1172.36 547.129 1172.47 543.216 1172.47 538.977C1172.47 525.175 1170.51 515.828 1166.6 510.937C1162.8 506.046 1157.31 503.601 1150.14 503.601C1142.64 503.601 1135.63 506.536 1129.11 512.404C1125.08 516.1 1122.04 523.055 1119.98 533.272C1119.32 536.097 1118.07 539.14 1116.23 542.401C1111.55 545.444 1107.8 546.966 1104.98 546.966C1102.59 546.966 1100.41 546.259 1098.46 544.846C1097.37 544.086 1096.83 543.216 1096.83 542.238C1096.83 539.412 1099.82 533.054 1105.79 523.164C1111.88 513.165 1119.49 505.72 1128.62 500.83C1137.86 495.83 1145.9 493.331 1152.74 493.331C1162.09 493.331 1169.05 494.2 1173.61 495.939C1178.18 497.569 1182.2 500.504 1185.68 504.742C1189.15 508.981 1191.27 513.6 1192.03 518.599C1192.47 520.99 1192.69 529.522 1192.69 544.194L1192.2 570.115L1192.36 589.026C1192.36 591.526 1192.31 593.645 1192.2 595.384C1192.09 598.536 1192.03 600.872 1192.03 602.394C1192.03 605.98 1193.07 608.861 1195.13 611.034C1197.2 613.208 1199.64 614.295 1202.47 614.295C1206.6 614.295 1210.13 612.23 1213.06 608.1L1215.02 605.491C1215.56 605.165 1216.76 604.785 1218.61 604.35ZM1170.68 599.622C1171.44 585.82 1171.82 576.093 1171.82 570.441C1171.82 567.507 1171.66 563.54 1171.33 558.54C1164.05 561.149 1156.33 565.116 1148.18 570.441C1140.03 575.767 1133.56 581.907 1128.78 588.863C1125.3 593.862 1123.56 598.59 1123.56 603.046C1123.56 607.285 1124.98 610.817 1127.8 613.643C1130.74 616.468 1134.38 617.881 1138.72 617.881C1142.09 617.881 1146.17 616.686 1150.95 614.295C1157.26 611.143 1163.83 606.252 1170.68 599.622Z" fill="black"/>
<path d="M1309.25 711.62C1309.14 710.425 1309.09 709.338 1309.09 708.36C1309.09 707.599 1309.19 706.675 1309.41 705.588L1325.71 702.328C1328.32 701.024 1330.44 699.448 1332.07 697.6C1332.61 695.644 1332.89 693.687 1332.89 691.731C1332.89 674.994 1332.45 643.096 1331.58 596.036L1331.09 536.369C1330.88 526.914 1330.28 520.936 1329.3 518.436C1328.76 517.132 1327.94 516.1 1326.85 515.339C1324.14 513.274 1318.7 511.535 1310.55 510.122L1311.53 505.231C1323.27 500.232 1331.09 496.374 1335.01 493.657C1339.03 490.831 1342.83 486.918 1346.42 481.919L1348.37 481.43C1349.13 481.43 1350.22 481.756 1351.63 482.408C1351.53 489.255 1351.47 493.765 1351.47 495.939L1351.63 513.872C1359.68 507.785 1368.05 503.275 1376.74 500.341C1385.43 497.298 1394.46 495.776 1403.8 495.776C1420.54 495.776 1434.67 501.699 1446.19 513.546C1457.71 525.283 1463.47 540.445 1463.47 559.029C1463.47 572.832 1460.21 585.222 1453.69 596.199C1447.28 607.176 1438.36 615.381 1426.95 620.816C1415.65 626.25 1404.24 628.967 1392.72 628.967C1382.94 628.967 1371.74 626.304 1359.13 620.979C1357.07 620.109 1355.22 619.348 1353.59 618.696C1353.37 627.391 1353.26 635.107 1353.26 641.846C1353.26 675.429 1354.19 694.231 1356.04 698.252C1357.01 700.426 1360.06 701.73 1365.17 702.165C1373.86 702.817 1379.62 704.067 1382.45 705.914C1384.08 706.892 1385.16 708.849 1385.71 711.783L1369.57 712.109L1354.89 711.783L1330.44 711.946L1309.25 711.62ZM1351.8 525.12C1351.58 526.642 1351.47 528.055 1351.47 529.359C1351.47 568.159 1351.85 589.895 1352.61 594.569C1354.13 603.155 1357.18 609.187 1361.74 612.664C1368.81 618.207 1378.91 620.979 1392.06 620.979C1405.65 620.979 1417.12 616.305 1426.46 606.959C1435.81 597.503 1440.48 585.276 1440.48 570.278C1440.48 552.237 1435.54 537.945 1425.65 527.403C1415.76 516.86 1402.72 511.589 1386.52 511.589C1379.67 511.589 1373.37 512.73 1367.61 515.013C1361.85 517.186 1356.58 520.556 1351.8 525.12Z" fill="black"/>
<path d="M1484.17 424.534V420.948C1487.22 419.97 1490.59 418.937 1494.28 417.85C1499.71 416.111 1507.76 413.449 1518.41 409.862H1526.07C1526.18 415.079 1526.23 418.068 1526.23 418.829C1526.23 508.057 1525.96 561.257 1525.42 578.429C1525.09 588.537 1524.93 593.917 1524.93 594.569C1524.93 606.741 1525.42 613.534 1526.4 614.947C1527.7 616.903 1531.67 618.262 1538.3 619.022C1545.04 619.783 1549 620.544 1550.2 621.305C1551.07 621.739 1551.5 622.5 1551.5 623.587C1551.5 624.783 1551.23 625.652 1550.69 626.195C1550.25 626.63 1549.38 626.848 1548.08 626.848C1547.32 626.848 1541.61 626.685 1530.96 626.358L1509.6 625.706L1482.22 626.848C1480.48 626.956 1479.17 626.63 1478.3 625.869C1477.65 625.326 1477.33 624.565 1477.33 623.587C1477.33 622.5 1477.65 621.739 1478.3 621.305C1479.07 620.761 1482.98 619.892 1490.04 618.696C1497.22 617.501 1501.29 616.523 1502.27 615.762C1503.36 614.892 1504.06 613.045 1504.39 610.219C1504.82 606.306 1505.04 595.275 1505.04 577.125L1504.88 539.63L1505.37 500.83L1505.2 462.03L1505.69 442.956C1505.69 439.152 1505.09 436.435 1503.9 434.805C1502.7 433.066 1500.15 431.381 1496.24 429.751C1490.37 427.36 1486.35 425.621 1484.17 424.534Z" fill="black"/>
<path d="M1684.86 604.35C1685.51 605.763 1685.83 606.796 1685.83 607.448C1685.83 609.078 1684.53 611.958 1681.92 616.088C1678.55 621.522 1674.8 625.489 1670.67 627.989C1668.06 629.619 1664.48 630.434 1659.91 630.434C1652.09 630.434 1646.22 628.043 1642.31 623.261C1639.92 620.435 1638.23 615.381 1637.25 608.1L1618.99 620.816C1612.58 624.511 1607.69 626.847 1604.32 627.826C1598.89 629.238 1592.37 629.945 1584.76 629.945C1579.22 629.945 1574.81 628.315 1571.55 625.054C1568.4 621.685 1566.83 617.392 1566.83 612.175C1566.83 604.676 1571.39 595.71 1580.52 585.276C1589.76 574.843 1602.26 566.311 1618.02 559.682C1629.1 555.008 1635.89 552.019 1638.39 550.715C1638.61 547.129 1638.72 543.216 1638.72 538.977C1638.72 525.175 1636.76 515.828 1632.85 510.937C1629.05 506.046 1623.56 503.601 1616.39 503.601C1608.89 503.601 1601.88 506.536 1595.36 512.404C1591.33 516.1 1588.29 523.055 1586.23 533.272C1585.57 536.097 1584.32 539.14 1582.48 542.401C1577.8 545.444 1574.05 546.966 1571.23 546.966C1568.84 546.966 1566.66 546.259 1564.71 544.846C1563.62 544.086 1563.08 543.216 1563.08 542.238C1563.08 539.412 1566.07 533.054 1572.04 523.164C1578.13 513.165 1585.74 505.72 1594.87 500.83C1604.1 495.83 1612.15 493.331 1618.99 493.331C1628.34 493.331 1635.3 494.2 1639.86 495.939C1644.43 497.569 1648.45 500.504 1651.93 504.742C1655.4 508.981 1657.52 513.6 1658.28 518.599C1658.72 520.99 1658.94 529.522 1658.94 544.194L1658.45 570.115L1658.61 589.026C1658.61 591.526 1658.55 593.645 1658.45 595.384C1658.34 598.536 1658.28 600.872 1658.28 602.394C1658.28 605.98 1659.32 608.861 1661.38 611.034C1663.45 613.208 1665.89 614.295 1668.72 614.295C1672.85 614.295 1676.38 612.23 1679.31 608.1L1681.27 605.491C1681.81 605.165 1683.01 604.785 1684.86 604.35ZM1636.93 599.622C1637.69 585.82 1638.07 576.093 1638.07 570.441C1638.07 567.507 1637.91 563.54 1637.58 558.54C1630.3 561.149 1622.58 565.116 1614.43 570.441C1606.28 575.767 1599.81 581.907 1595.03 588.863C1591.55 593.862 1589.81 598.59 1589.81 603.046C1589.81 607.285 1591.23 610.817 1594.05 613.643C1596.99 616.468 1600.63 617.881 1604.97 617.881C1608.34 617.881 1612.42 616.686 1617.2 614.295C1623.5 611.143 1630.08 606.252 1636.93 599.622Z" fill="black"/>
<path d="M1694.15 621.305C1696.87 620.544 1700.02 619.892 1703.6 619.348C1710.45 618.37 1714.53 617.229 1715.83 615.925C1717.24 614.621 1717.95 611.632 1717.95 606.959L1718.28 601.09C1718.38 598.916 1718.44 596.145 1718.44 592.775L1718.11 542.727C1718.11 535.989 1717.24 531.641 1715.5 529.685C1712.57 526.642 1707.14 524.523 1699.2 523.327V517.458C1707.14 515.285 1713.22 512.459 1717.46 508.981C1723.66 504.09 1728.87 497.461 1733.11 489.092L1738.65 489.255C1738.98 494.363 1739.14 498.004 1739.14 500.178V510.937L1739.31 513.872C1740.61 513.002 1742.13 511.915 1743.87 510.611C1750.39 505.72 1757.08 501.754 1763.92 498.71C1770.77 495.559 1776.86 493.385 1782.18 492.189C1785.55 491.32 1789.35 490.885 1793.59 490.885C1802.51 490.885 1810.17 493.276 1816.58 498.058C1822.99 502.84 1827.12 508.492 1828.97 515.013C1830.93 521.425 1831.9 534.25 1831.9 553.487V578.103C1831.9 578.755 1831.8 580.929 1831.58 584.624C1831.47 588.319 1831.41 592.558 1831.41 597.34C1831.41 604.948 1831.74 609.784 1832.39 611.849C1832.94 613.262 1834.35 614.675 1836.63 616.088C1847.07 617.501 1853.15 619.185 1854.89 621.142V622.446C1854.89 623.533 1854.56 624.891 1853.91 626.521H1850.81L1829.3 626.358L1808.1 626.685C1800.28 626.902 1793.05 626.848 1786.42 626.521L1785.44 623.098C1785.44 622.446 1785.82 621.576 1786.58 620.49C1789.52 619.185 1793.65 618.316 1798.97 617.881C1802.12 617.664 1804.3 617.338 1805.49 616.903C1806.69 616.468 1808.16 615.599 1809.9 614.295C1811.2 611.686 1811.85 609.513 1811.85 607.774C1811.85 607.013 1811.74 605.491 1811.53 603.209C1811.2 598.21 1810.98 585.765 1810.87 565.876V557.399L1811.2 544.357C1811.2 530.337 1808.37 520.664 1802.72 515.339C1797.07 510.013 1789.52 507.351 1780.06 507.351C1772.78 507.351 1765.66 508.981 1758.71 512.241C1751.75 515.393 1745.01 520.175 1738.49 526.588C1738.27 531.804 1738.17 536.26 1738.17 539.956L1738.65 575.984C1738.65 594.786 1738.93 606.306 1739.47 610.545C1739.69 612.284 1740.07 613.479 1740.61 614.132C1741.48 615.001 1743.22 615.708 1745.83 616.251C1748.44 616.794 1751.42 617.555 1754.79 618.533C1758.27 619.511 1760.55 620.109 1761.64 620.327C1763.81 620.87 1765.28 621.957 1766.04 623.587L1765.88 626.848H1748.76L1713.55 626.358C1705.4 626.576 1700.23 626.685 1698.06 626.685H1693.99L1693.66 624.565C1693.66 623.804 1693.82 622.718 1694.15 621.305Z" fill="black"/>
<path d="M31.7897 801.773C31.7897 798.186 33.1483 795.089 35.8653 792.48C38.6911 789.872 42.0603 788.568 45.9729 788.568C49.9941 788.568 53.5263 790.035 56.5694 792.969C59.6125 795.904 61.1341 799.056 61.1341 802.425C61.1341 805.794 59.6125 809 56.5694 812.043C53.5263 814.978 49.9941 816.445 45.9729 816.445C41.9516 816.445 38.5824 815.086 35.8653 812.369C33.1483 809.652 31.7897 806.12 31.7897 801.773ZM18.0957 886.219L18.2587 881.491C25.3231 879.426 29.127 878.231 29.6704 877.905C33.583 876.166 37.6586 873.503 41.8972 869.917C46.2446 866.33 49.8854 862.309 52.8199 857.853C54.1241 857.636 55.1566 857.527 55.9173 857.527L57.8736 857.69C58.3084 862.907 58.5257 866.711 58.5257 869.102C58.5257 869.645 58.417 872.09 58.1997 876.438V885.078L58.3627 932.029L57.8736 981.751C57.7649 985.773 58.417 988.598 59.8299 990.229C61.2428 991.75 65.4271 993.489 72.3828 995.445C76.7301 996.641 79.9906 997.673 82.1642 998.543C82.4903 999.304 82.6533 999.956 82.6533 1000.5C82.6533 1001.15 82.3816 1001.97 81.8382 1002.94C77.5996 1002.84 72.1654 1002.56 65.5358 1002.13C56.5151 1001.37 50.5375 1000.99 47.6031 1000.99C46.1902 1000.99 37.4956 1001.26 21.5192 1001.8C18.2587 1001.91 15.1069 1002.18 12.0638 1002.62C11.5204 1002.62 10.6509 1002.46 9.45541 1002.13C8.91199 1001.37 8.64029 1000.72 8.64029 1000.17C8.64029 998.652 9.67277 997.456 11.7377 996.587C12.1725 996.369 17.7153 995.119 28.3662 992.837C31.8441 992.185 34.1264 991.098 35.2132 989.577C37.0609 987.294 37.9847 983.653 37.9847 978.654C38.202 970.285 38.3107 947.353 38.3107 909.858C38.3107 902.359 37.9847 897.685 37.3326 895.838C36.7891 894.533 35.3219 893.066 32.9309 891.436C30.6486 889.697 25.7035 887.958 18.0957 886.219Z" fill="black"/>
<path d="M108.9 960.721C112.921 971.046 115.965 977.73 118.03 980.773C122.16 986.968 127.105 991.805 132.865 995.282C138.625 998.652 144.874 1000.34 151.613 1000.34C157.808 1000.34 163.948 997.673 170.034 992.348C174.382 988.327 176.555 983.653 176.555 978.328C176.555 971.263 174.001 964.743 168.893 958.765C163.785 952.896 154.058 947.299 139.712 941.973C125.474 936.539 115.91 930.779 111.02 924.693C106.129 918.607 103.683 911.651 103.683 903.826C103.683 896.435 105.694 889.914 109.715 884.263C113.737 878.611 119.279 874.373 126.344 871.547C133.408 868.613 139.929 867.145 145.907 867.145C153.623 867.145 160.525 867.743 166.611 868.939C172.806 870.134 178.131 871.982 182.587 874.481C183.457 880.024 184.163 888.175 184.707 898.935L185.033 904.152C183.62 904.261 182.424 904.315 181.446 904.315H179.164C175.903 895.294 170.904 888.175 164.165 882.959C157.536 877.633 150.961 874.97 144.44 874.97C137.919 874.97 132.647 876.981 128.626 881.002C124.605 884.915 122.594 890.077 122.594 896.49C122.594 901.38 124.225 905.728 127.485 909.532C130.745 913.336 138.353 917.683 150.308 922.574C162.372 927.464 171.121 932.029 176.555 936.268C182.098 940.398 186.174 945.451 188.782 951.429C191.391 957.406 192.695 963.112 192.695 968.546C192.695 976.046 190.195 983.056 185.196 989.577C180.305 996.098 174.11 1000.66 166.611 1003.27C159.22 1005.99 152.591 1007.35 146.722 1007.35C132.919 1007.35 120.203 1004.79 108.574 999.684C107.487 998.815 106.89 997.184 106.781 994.793C106.781 993.815 106.672 992.239 106.455 990.066C104.716 975.393 103.846 966.699 103.846 963.982C103.846 962.678 104.118 961.808 104.662 961.373C105.205 960.939 106.618 960.721 108.9 960.721Z" fill="black"/>
<path d="M311.539 804.87C311.539 800.74 312.898 797.317 315.615 794.599C318.441 791.774 321.81 790.361 325.723 790.361C329.744 790.361 333.113 791.719 335.83 794.436C338.656 797.154 340.069 800.686 340.069 805.033C340.069 809.489 338.547 813.402 335.504 816.771C333.33 819.162 330.124 820.357 325.886 820.357C321.864 820.357 318.441 818.944 315.615 816.119C312.898 813.184 311.539 809.435 311.539 804.87ZM297.519 1086.25L309.909 1071.09C312.844 1066.42 315.126 1061.52 316.756 1056.42C318.495 1051.31 319.691 1045 320.343 1037.51C321.321 1025.01 321.81 1014.03 321.81 1004.57C321.81 1001.86 321.701 998.054 321.484 993.163L321.647 967.731C321.756 935.887 321.538 915.346 320.995 906.108C320.669 900.348 319.799 896.761 318.386 895.349C316.321 893.392 311.594 892.088 304.203 891.436C303.443 891.327 302.356 891.219 300.943 891.11L301.269 884.915C315.506 881.328 325.831 875.297 332.243 866.819C333.656 865.08 335.232 863.341 336.971 861.602L338.112 861.439C338.656 861.439 339.417 861.657 340.395 862.092L340.884 921.432C341.645 962.841 342.025 985.338 342.025 988.924C342.025 1009.79 340.938 1024.9 338.764 1034.25C336.699 1043.7 332.733 1053.1 326.864 1062.45C322.734 1068.97 316.811 1075.71 309.094 1082.66L302.41 1088.7L300.128 1090C299.15 1089.13 298.28 1087.88 297.519 1086.25Z" fill="black"/>
<path d="M372.674 874.155H384.9L390.28 874.481L394.519 874.155C405.713 874.155 412.669 874.264 415.386 874.481L415.549 877.579C415.549 892.903 415.332 907.738 414.897 922.084C414.571 930.562 414.408 935.398 414.408 936.594C414.408 955.722 415.006 967.677 416.201 972.459C417.505 977.241 420.44 981.099 425.004 984.034C429.678 986.86 435.275 988.272 441.796 988.272C449.73 988.272 457.283 986.642 464.456 983.382C471.738 980.012 477.933 975.937 483.041 971.155C483.584 967.025 483.856 962.46 483.856 957.461C483.856 941.267 484.019 930.344 484.345 924.693C484.454 921.324 484.508 918.389 484.508 915.89C484.508 898.283 483.639 888.338 481.9 886.056C480.161 883.774 473.531 882.035 462.011 880.839C458.207 880.405 455.436 880.024 453.697 879.698C452.827 878.285 452.392 877.198 452.392 876.438L452.881 874.644C455.707 874.318 458.479 874.155 461.196 874.155L487.117 874.481C496.355 874.264 501.245 874.155 501.789 874.155C502.984 874.155 504.125 874.21 505.212 874.318L505.538 886.219C504.778 902.739 504.343 923.171 504.234 947.516L503.908 960.721L504.56 982.893C505.538 984.632 506.408 985.664 507.169 985.99C508.473 986.533 511.135 986.805 515.157 986.805H516.624C518.037 986.805 522.058 987.131 528.688 987.783C528.796 989.196 528.851 990.229 528.851 990.881V992.674C514.287 995.826 502.495 998.978 493.475 1002.13C489.888 1003.32 486.845 1004.19 484.345 1004.74C483.802 1000.93 483.53 998.597 483.53 997.728V984.523C483.53 983.979 483.476 982.512 483.367 980.121C481.954 981.099 480.324 982.295 478.476 983.708C469.89 990.337 460.815 995.935 451.251 1000.5C444.839 1003.65 438.644 1005.23 432.666 1005.23C421.255 1005.23 411.962 1000.99 404.789 992.511C397.508 984.034 393.867 969.579 393.867 949.147C393.867 948.06 393.921 946.103 394.03 943.278C394.464 938.061 394.682 934.42 394.682 932.355C394.682 931.594 394.627 929.203 394.519 925.182C394.41 923.443 394.356 921.922 394.356 920.617C394.356 919.639 394.41 917.465 394.519 914.096C394.627 910.618 394.682 908.173 394.682 906.76C394.682 904.913 394.627 903.282 394.519 901.87L394.193 893.229L394.356 888.664C394.356 886.926 393.486 885.35 391.747 883.937C384.9 882.089 380.39 881.057 378.216 880.839C376.151 880.513 374.304 880.024 372.674 879.372V874.155Z" fill="black"/>
<path d="M554.609 960.721C558.63 971.046 561.673 977.73 563.738 980.773C567.868 986.968 572.813 991.805 578.573 995.282C584.333 998.652 590.583 1000.34 597.321 1000.34C603.516 1000.34 609.656 997.673 615.743 992.348C620.09 988.327 622.264 983.653 622.264 978.328C622.264 971.263 619.71 964.743 614.602 958.765C609.493 952.896 599.766 947.299 585.42 941.973C571.183 936.539 561.619 930.779 556.728 924.693C551.837 918.607 549.392 911.651 549.392 903.826C549.392 896.435 551.403 889.914 555.424 884.263C559.445 878.611 564.988 874.373 572.052 871.547C579.117 868.613 585.638 867.145 591.615 867.145C599.332 867.145 606.233 867.743 612.319 868.939C618.514 870.134 623.84 871.982 628.296 874.481C629.165 880.024 629.872 888.175 630.415 898.935L630.741 904.152C629.328 904.261 628.133 904.315 627.154 904.315H624.872C621.612 895.294 616.612 888.175 609.874 882.959C603.244 877.633 596.669 874.97 590.148 874.97C583.627 874.97 578.356 876.981 574.335 881.002C570.313 884.915 568.303 890.077 568.303 896.49C568.303 901.38 569.933 905.728 573.193 909.532C576.454 913.336 584.062 917.683 596.017 922.574C608.081 927.464 616.83 932.029 622.264 936.268C627.807 940.398 631.882 945.451 634.491 951.429C637.099 957.406 638.403 963.112 638.403 968.546C638.403 976.046 635.903 983.056 630.904 989.577C626.013 996.098 619.818 1000.66 612.319 1003.27C604.929 1005.99 598.299 1007.35 592.43 1007.35C578.628 1007.35 565.912 1004.79 554.283 999.684C553.196 998.815 552.598 997.184 552.489 994.793C552.489 993.815 552.381 992.239 552.163 990.066C550.424 975.393 549.555 966.699 549.555 963.982C549.555 962.678 549.827 961.808 550.37 961.373C550.913 960.939 552.326 960.721 554.609 960.721Z" fill="black"/>
<path d="M699.537 841.061L704.591 841.224L705.243 856.712L704.917 876.764C706.982 876.872 708.286 876.927 708.83 876.927C711.655 876.927 717.035 876.709 724.969 876.275C730.077 875.949 734.968 875.786 739.641 875.786C741.815 875.786 745.075 875.84 749.423 875.949C749.64 878.122 749.749 879.861 749.749 881.165C749.749 882.578 749.423 884.806 748.771 887.849H745.999L720.73 888.664L708.178 888.991L705.243 889.317C704.374 892.034 703.939 895.185 703.939 898.772L704.428 923.226L704.102 966.264C704.102 977.567 705.569 985.066 708.504 988.761C711.329 992.565 715.568 994.467 721.219 994.467C724.045 994.467 729.371 993.598 737.196 991.859C739.587 991.315 742.793 989.522 746.814 986.479H748.281C749.26 986.479 750.02 986.805 750.564 987.457C751.216 988.001 751.542 988.761 751.542 989.74L751.379 990.881C746.706 995.989 741.326 999.738 735.24 1002.13C729.262 1004.41 721.274 1005.55 711.275 1005.55C704.211 1005.55 698.342 1003.92 693.668 1000.66C689.104 997.402 686.169 993.543 684.865 989.087C683.561 984.631 682.909 974.904 682.909 959.906L683.561 923.226L683.398 905.619V899.098C683.398 896.055 683.289 893.012 683.072 889.969L680.3 889.806L666.932 890.295L665.628 890.458C664.433 890.458 663.509 890.186 662.857 889.643C662.313 889.099 662.042 888.447 662.042 887.686C662.042 886.382 662.422 885.35 663.183 884.589C664.052 883.719 666.552 882.415 670.682 880.676C673.508 879.481 676.768 877.253 680.463 873.992C684.267 870.623 687.473 866.928 690.082 862.907C691.386 860.733 693.234 856.603 695.625 850.517C697.364 846.061 698.668 842.909 699.537 841.061Z" fill="black"/>
<path d="M966.408 979.958C967.06 981.371 967.386 982.404 967.386 983.056C967.386 984.686 966.082 987.566 963.474 991.696C960.104 997.13 956.355 1001.1 952.225 1003.6C949.617 1005.23 946.03 1006.04 941.465 1006.04C933.64 1006.04 927.771 1003.65 923.859 998.869C921.468 996.043 919.783 990.989 918.805 983.708L900.546 996.424C894.134 1000.12 889.243 1002.46 885.874 1003.43C880.44 1004.85 873.919 1005.55 866.311 1005.55C860.768 1005.55 856.367 1003.92 853.106 1000.66C849.954 997.293 848.378 993 848.378 987.783C848.378 980.284 852.943 971.318 862.072 960.884C871.31 950.451 883.809 941.919 899.568 935.289C910.654 930.616 917.446 927.627 919.946 926.323C920.163 922.737 920.272 918.824 920.272 914.585C920.272 900.783 918.316 891.436 914.403 886.545C910.599 881.654 905.111 879.209 897.938 879.209C890.439 879.209 883.429 882.144 876.908 888.012C872.886 891.708 869.843 898.663 867.778 908.88C867.126 911.705 865.876 914.748 864.029 918.009C859.355 921.052 855.606 922.574 852.78 922.574C850.389 922.574 848.215 921.867 846.259 920.454C845.172 919.694 844.629 918.824 844.629 917.846C844.629 915.02 847.618 908.662 853.595 898.772C859.681 888.773 867.289 881.328 876.419 876.438C885.657 871.438 893.699 868.939 900.546 868.939C909.893 868.939 916.849 869.808 921.413 871.547C925.978 873.177 929.999 876.112 933.477 880.35C936.955 884.589 939.074 889.208 939.835 894.207C940.27 896.598 940.487 905.13 940.487 919.802L939.998 945.723L940.161 964.634C940.161 967.134 940.107 969.253 939.998 970.992C939.889 974.144 939.835 976.48 939.835 978.002C939.835 981.588 940.868 984.468 942.932 986.642C944.997 988.816 947.443 989.903 950.269 989.903C954.399 989.903 957.931 987.838 960.865 983.708L962.821 981.099C963.365 980.773 964.56 980.393 966.408 979.958ZM918.479 975.23C919.24 961.428 919.62 951.701 919.62 946.049C919.62 943.115 919.457 939.148 919.131 934.148C911.849 936.757 904.133 940.724 895.982 946.049C887.83 951.375 881.364 957.515 876.582 964.471C873.104 969.47 871.365 974.198 871.365 978.654C871.365 982.893 872.778 986.425 875.603 989.25C878.538 992.076 882.179 993.489 886.526 993.489C889.895 993.489 893.971 992.294 898.753 989.903C905.057 986.751 911.632 981.86 918.479 975.23Z" fill="black"/>
<path d="M1171.98 883.774L1172.14 879.046L1171.98 859.972L1172.14 823.944C1172.14 813.945 1171.06 807.587 1168.88 804.87C1166.71 802.153 1160.35 799.382 1149.81 796.556C1149.05 796.338 1147.85 796.012 1146.22 795.578V793.784C1146.22 792.698 1146.33 791.502 1146.55 790.198C1161.33 788.676 1174.05 786.122 1184.7 782.536L1193.01 782.373C1193.45 789.763 1193.66 798.023 1193.66 807.152L1193.01 869.917L1194.15 940.669L1193.66 978.328C1193.66 986.044 1194.21 990.392 1195.29 991.37C1197.47 993.543 1202.25 994.685 1209.64 994.793C1211.16 994.793 1213.23 994.902 1215.84 995.119V998.054C1215.84 998.815 1215.78 999.63 1215.67 1000.5C1212.3 1001.26 1208.83 1001.97 1205.24 1002.62L1181.6 1007.18C1178.12 1007.84 1175.35 1008.16 1173.29 1008.16V992.511C1171.44 993.054 1168.56 994.141 1164.65 995.771C1147.69 1002.94 1132.09 1006.53 1117.86 1006.53C1109.27 1006.53 1100.52 1003.76 1091.61 998.217C1082.7 992.565 1075.85 984.74 1071.07 974.741C1066.29 964.743 1063.9 954.526 1063.9 944.093C1063.9 934.746 1065.47 925.834 1068.62 917.357C1071.78 908.771 1075.91 901.652 1081.01 896.001C1084.27 892.305 1088.89 888.665 1094.87 885.078C1100.85 881.383 1105.79 879.046 1109.71 878.068C1119.38 875.568 1125.85 874.318 1129.11 874.318C1143.78 874.318 1155.84 876.492 1165.3 880.839C1168.23 882.252 1170.46 883.23 1171.98 883.774ZM1172.14 984.523C1172.58 977.241 1172.8 962.243 1172.8 939.528C1172.8 920.291 1171.87 908.173 1170.03 903.174C1168.29 898.066 1163.83 893.284 1156.66 888.828C1149.48 884.263 1141.44 881.981 1132.53 881.981C1120.03 881.981 1109.43 886.817 1100.74 896.49C1092.05 906.162 1087.7 920.454 1087.7 939.365C1087.7 955.994 1092.37 969.253 1101.72 979.143C1111.17 989.033 1122.91 993.978 1136.93 993.978C1144.97 993.978 1152.31 992.891 1158.94 990.718C1165.57 988.544 1169.97 986.479 1172.14 984.523Z" fill="black"/>
<path d="M1226.59 1002.62L1225.94 1000.5C1225.94 999.738 1226.43 998.597 1227.41 997.076L1237.03 995.119L1250.56 992.674C1251.65 992.131 1252.41 991.37 1252.84 990.392C1253.49 988.979 1253.82 984.795 1253.82 977.839C1253.82 940.887 1253.6 919.585 1253.17 913.933C1252.73 908.173 1251.75 904.532 1250.23 903.011C1248.71 901.489 1244.8 900.294 1238.5 899.424C1234.8 898.881 1231.87 898.174 1229.69 897.305L1230.34 892.414C1241.76 887.741 1249.42 883.719 1253.33 880.35C1258.76 875.46 1263.38 869.047 1267.19 861.113L1272.73 861.276C1273.38 866.711 1273.71 878.774 1273.71 897.468L1273.55 900.239C1273.55 900.891 1273.65 901.924 1273.87 903.337C1278 895.838 1283.16 888.936 1289.36 882.633L1293.11 878.883C1294.63 877.144 1296.1 875.786 1297.51 874.807C1305.12 870.243 1310.77 867.96 1314.46 867.96C1319.25 867.96 1323.16 869.591 1326.2 872.851C1329.25 876.003 1330.77 879.916 1330.77 884.589C1330.77 888.284 1329.68 891.164 1327.51 893.229C1324.57 895.946 1321.2 897.305 1317.4 897.305C1315.66 897.305 1312.24 896.381 1307.13 894.533C1302.02 892.686 1298.65 891.762 1297.02 891.762C1293.98 891.762 1291.86 892.251 1290.66 893.229C1287.62 895.62 1283.92 900.511 1279.58 907.901C1276.21 913.444 1274.52 918.552 1274.52 923.226L1275.34 950.125L1275.67 982.404C1275.99 986.099 1276.43 988.49 1276.97 989.577C1277.4 990.337 1278.49 991.261 1280.23 992.348C1291.97 993.326 1298.92 994.033 1301.1 994.467C1302.62 994.576 1303.76 994.685 1304.52 994.793C1309.19 994.902 1312.45 995.554 1314.3 996.75C1315.28 997.293 1315.77 998.108 1315.77 999.195C1315.77 999.847 1315.33 1000.72 1314.46 1001.8L1296.37 1001.64L1289.52 1001.48L1279.58 1001.64H1262.95L1253.98 1002.13L1226.59 1002.62Z" fill="black"/>
<path d="M1460.53 916.053L1395.16 916.542H1382.77C1377.77 916.542 1372.66 916.759 1367.45 917.194C1366.47 920.454 1365.98 922.682 1365.98 923.878L1366.14 925.508V927.138L1365.98 935.126C1365.98 941.756 1368.05 949.907 1372.18 959.58C1376.41 969.144 1382.39 976.48 1390.11 981.588C1397.93 986.588 1407.66 989.25 1419.29 989.577C1425.48 989.25 1430.43 988.49 1434.12 987.294C1437.82 986.099 1443.04 983.327 1449.78 978.98L1461.51 969.362L1462.49 975.883C1462.49 976.643 1462.44 977.458 1462.33 978.328C1457.44 984.523 1451.24 989.957 1443.74 994.63C1436.24 999.304 1428.64 1002.73 1420.92 1004.9C1417.22 1005.88 1411.14 1006.37 1402.66 1006.37C1394.94 1006.37 1387.34 1004.79 1379.84 1001.64C1368.75 996.858 1360 989.196 1353.59 978.654C1347.29 968.003 1344.14 955.124 1344.14 940.017C1344.14 935.235 1345 929.095 1346.74 921.595C1348.59 914.096 1351.85 906.108 1356.53 897.631C1359.68 891.871 1363.54 887.143 1368.1 883.448C1374.62 878.231 1380.33 874.59 1385.22 872.525C1392.28 869.591 1400.49 868.123 1409.83 868.123C1419.94 868.123 1428.2 869.971 1434.61 873.666C1443.31 878.557 1449.78 884.861 1454.01 892.577C1458.36 900.294 1460.53 907.358 1460.53 913.77V916.053ZM1369.57 910.184H1377.23C1382.77 910.184 1399.29 909.314 1426.79 907.575C1431.14 907.358 1433.8 906.923 1434.78 906.271C1436.73 904.206 1437.71 902.359 1437.71 900.728C1437.71 897.359 1436.62 893.555 1434.45 889.317C1432.28 884.969 1428.91 881.654 1424.34 879.372C1419.89 876.981 1414.67 875.786 1408.69 875.786C1396.09 875.786 1385.98 880.513 1378.37 889.969C1372.5 897.142 1369.57 903.88 1369.57 910.184Z" fill="black"/>
<path d="M1603.18 979.958C1603.83 981.371 1604.16 982.404 1604.16 983.056C1604.16 984.686 1602.85 987.566 1600.25 991.696C1596.88 997.13 1593.13 1001.1 1589 1003.6C1586.39 1005.23 1582.8 1006.04 1578.24 1006.04C1570.41 1006.04 1564.54 1003.65 1560.63 998.869C1558.24 996.043 1556.56 990.989 1555.58 983.708L1537.32 996.424C1530.91 1000.12 1526.02 1002.46 1522.65 1003.43C1517.21 1004.85 1510.69 1005.55 1503.08 1005.55C1497.54 1005.55 1493.14 1003.92 1489.88 1000.66C1486.73 997.293 1485.15 993 1485.15 987.783C1485.15 980.284 1489.72 971.318 1498.85 960.884C1508.08 950.451 1520.58 941.919 1536.34 935.289C1547.43 930.616 1554.22 927.627 1556.72 926.323C1556.94 922.737 1557.05 918.824 1557.05 914.585C1557.05 900.783 1555.09 891.436 1551.18 886.545C1547.37 881.654 1541.88 879.209 1534.71 879.209C1527.21 879.209 1520.2 882.144 1513.68 888.012C1509.66 891.708 1506.62 898.663 1504.55 908.88C1503.9 911.705 1502.65 914.748 1500.8 918.009C1496.13 921.052 1492.38 922.574 1489.55 922.574C1487.16 922.574 1484.99 921.867 1483.03 920.454C1481.95 919.694 1481.4 918.824 1481.4 917.846C1481.4 915.02 1484.39 908.662 1490.37 898.772C1496.45 888.773 1504.06 881.328 1513.19 876.438C1522.43 871.438 1530.47 868.939 1537.32 868.939C1546.67 868.939 1553.62 869.808 1558.19 871.547C1562.75 873.177 1566.77 876.112 1570.25 880.35C1573.73 884.589 1575.85 889.208 1576.61 894.207C1577.04 896.598 1577.26 905.13 1577.26 919.802L1576.77 945.723L1576.93 964.634C1576.93 967.134 1576.88 969.253 1576.77 970.992C1576.66 974.144 1576.61 976.48 1576.61 978.002C1576.61 981.588 1577.64 984.468 1579.71 986.642C1581.77 988.816 1584.22 989.903 1587.04 989.903C1591.17 989.903 1594.7 987.838 1597.64 983.708L1599.59 981.099C1600.14 980.773 1601.33 980.393 1603.18 979.958ZM1555.25 975.23C1556.01 961.428 1556.39 951.701 1556.39 946.049C1556.39 943.115 1556.23 939.148 1555.9 934.148C1548.62 936.757 1540.91 940.724 1532.75 946.049C1524.6 951.375 1518.14 957.515 1513.35 964.471C1509.88 969.47 1508.14 974.198 1508.14 978.654C1508.14 982.893 1509.55 986.425 1512.38 989.25C1515.31 992.076 1518.95 993.489 1523.3 993.489C1526.67 993.489 1530.74 992.294 1535.53 989.903C1541.83 986.751 1548.4 981.86 1555.25 975.23Z" fill="black"/>
<path d="M1612.8 996.424C1614.54 995.228 1616.93 994.413 1619.97 993.978C1624.32 993.435 1627.69 992.565 1630.08 991.37C1632.04 989.74 1633.34 987.403 1633.99 984.36C1634.75 980.447 1635.13 966.699 1635.13 943.115C1635.13 919.965 1634.43 905.021 1633.01 898.283C1630.62 896.761 1627.53 895.566 1623.72 894.696C1622.53 894.479 1620.03 893.881 1616.22 892.903V887.523C1622.64 885.676 1627.8 883.285 1631.71 880.35C1635.73 877.416 1641.27 871.547 1648.34 862.744H1649.32C1649.97 862.744 1651 862.689 1652.41 862.581C1653.28 862.689 1653.99 862.961 1654.53 863.396L1654.37 881.981C1654.37 885.784 1654.48 889.86 1654.7 894.207C1666.33 883.665 1676.76 876.275 1686 872.036C1692.3 869.21 1699.42 867.797 1707.35 867.797C1716.81 867.797 1724.31 869.591 1729.85 873.177C1735.39 876.764 1740.66 883.23 1745.66 892.577C1755.34 883.013 1764.09 876.329 1771.91 872.525C1779.84 868.721 1787.83 866.819 1795.88 866.819C1808.05 866.819 1818.05 870.786 1825.87 878.72C1833.59 886.763 1837.56 898.555 1837.77 914.096V927.627L1837.94 942.463L1837.77 980.61C1837.66 985.066 1838.64 988.435 1840.71 990.718C1841.58 991.044 1844.89 992.022 1850.65 993.652C1854.24 994.63 1856.36 995.391 1857.01 995.935C1857.66 996.478 1857.99 997.239 1857.99 998.217C1857.99 999.412 1857.66 1000.83 1857.01 1002.46H1855.87L1839.4 1001.48C1837.45 1001.37 1834.35 1001.31 1830.11 1001.31C1824.89 1001.31 1817.61 1001.53 1808.27 1001.97H1799.95C1798.76 1001.97 1796.42 1002.02 1792.94 1002.13C1792.83 1001.15 1792.78 1000.28 1792.78 999.521C1792.78 998.652 1793.16 997.565 1793.92 996.261C1796.85 994.956 1800.88 993.924 1805.98 993.163C1811.09 992.294 1814.24 990.826 1815.44 988.761C1816.74 986.588 1817.39 978.111 1817.39 963.33C1817.39 931.268 1817.01 912.683 1816.25 907.575C1814.95 899.424 1811.47 893.066 1805.82 888.501C1800.28 883.828 1793.27 881.491 1784.79 881.491C1778.27 881.491 1771.91 883.23 1765.72 886.708C1759.52 890.077 1753.43 895.186 1747.46 902.033L1747.29 905.945V930.888L1746.64 950.288C1746.64 970.068 1746.81 981.317 1747.13 984.034C1747.57 986.751 1748.49 988.761 1749.9 990.066C1751.42 991.261 1755.72 992.348 1762.78 993.326C1765.93 993.761 1768.38 994.196 1770.12 994.63C1771.42 995.717 1772.07 997.13 1772.07 998.869C1772.07 1000.28 1771.58 1001.26 1770.61 1001.8H1767.84L1759.68 1001.64H1712.24L1699.2 1001.8C1698.98 1000.17 1698.88 998.978 1698.88 998.217L1699.04 996.261C1701.43 994.956 1705.89 993.706 1712.41 992.511C1715.78 991.968 1719.25 991.044 1722.84 989.74C1723.49 989.196 1723.98 988.49 1724.31 987.62C1724.85 986.099 1725.23 981.751 1725.45 974.578L1726.26 955.667L1725.94 934.311L1726.1 922.411C1726.1 909.043 1723.38 899.315 1717.95 893.229C1712.52 887.034 1705.67 883.937 1697.41 883.937C1689.69 883.937 1681.92 885.839 1674.1 889.643C1666.38 893.447 1659.97 898.555 1654.86 904.967C1654.75 908.01 1654.7 910.781 1654.7 913.281L1655.35 968.057C1655.46 980.012 1656.11 986.859 1657.3 988.598C1658.61 990.229 1661.43 991.37 1665.78 992.022C1672.74 993 1677.25 994.196 1679.31 995.608C1680.29 996.261 1680.78 997.239 1680.78 998.543C1680.78 999.412 1680.73 1000.44 1680.62 1001.64C1668.23 1000.77 1659.91 1000.34 1655.67 1000.34C1651.33 1000.34 1647.41 1000.39 1643.94 1000.5L1635.79 1000.99H1630.73L1612.47 1001.64C1612.26 1000.88 1612.15 1000.23 1612.15 999.684C1612.15 999.141 1612.36 998.054 1612.8 996.424Z" fill="black"/>
<path d="M1883.42 988.924C1883.42 984.142 1885.16 979.958 1888.64 976.372C1892.22 972.785 1896.35 970.992 1901.03 970.992C1905.59 970.992 1909.45 972.676 1912.6 976.046C1915.75 979.415 1917.33 983.653 1917.33 988.761C1917.33 993.87 1915.64 998.163 1912.27 1001.64C1909.01 1005.12 1905.05 1006.86 1900.37 1006.86C1895.81 1006.86 1891.84 1005.12 1888.47 1001.64C1885.1 998.054 1883.42 993.815 1883.42 988.924Z" fill="black"/>
<path d="M948.694 351.581C948.694 342.971 949.798 335.355 952.006 328.732C954.324 322.109 957.414 316.038 961.278 310.519C965.141 305 969.612 299.812 974.689 294.956C979.767 290.209 985.12 285.352 990.75 280.385V244.787C987.328 248.209 983.299 251.079 978.663 253.397C974.137 255.825 968.894 257.04 962.934 257.04C956.311 257.04 950.46 255.715 945.383 253.066C940.416 250.417 936.221 246.829 932.799 242.304C929.378 237.668 926.784 232.259 925.018 226.078C923.362 219.786 922.534 213.053 922.534 205.878C922.534 191.749 924.797 179.055 929.323 167.797C933.848 156.538 939.864 146.99 947.37 139.153C954.876 131.205 963.43 125.134 973.033 120.94C982.747 116.745 992.792 114.648 1003.17 114.648C1007.8 114.648 1011.56 115.917 1014.43 118.456C1017.3 120.885 1018.73 124.362 1018.73 128.887C1018.73 131.757 1018.4 133.799 1017.74 135.013C1017.19 136.117 1016.08 136.669 1014.43 136.669C1012.88 136.669 1011.28 136.559 1009.62 136.338C1007.97 136.117 1006.26 136.007 1004.49 136.007C998.09 136.007 991.577 137.442 984.955 140.312C978.332 143.071 972.316 147.376 966.907 153.226C961.609 158.966 957.249 166.306 953.827 175.247C950.405 184.078 948.694 194.619 948.694 206.871C948.694 215.702 950.405 222.546 953.827 227.402C957.249 232.259 961.94 234.687 967.901 234.687C971.323 234.687 974.303 233.694 976.842 231.707C979.38 229.61 981.588 227.016 983.464 223.925C985.341 220.835 986.831 217.468 987.935 213.825C989.149 210.073 990.087 206.485 990.75 203.063V164.816C990.75 161.615 990.474 159.297 989.922 157.862C989.48 156.427 989.259 155.103 989.259 153.889C989.259 152.233 990.142 150.853 991.909 149.749C993.675 148.645 995.772 148.094 998.2 148.094C1003.83 148.094 1008.24 149.584 1011.45 152.564C1014.76 155.434 1016.41 158.966 1016.41 163.161V255.384C1022.59 248.54 1028.22 240.758 1033.3 232.038C1038.49 223.318 1042.79 213.108 1046.22 201.408C1047.32 197.875 1048.53 195.337 1049.86 193.791C1051.18 192.136 1052.73 191.308 1054.49 191.308C1055.82 191.308 1057.14 191.749 1058.47 192.632C1059.9 193.405 1061.17 194.454 1062.28 195.778C1063.49 197.103 1064.43 198.593 1065.09 200.249C1065.86 201.904 1066.25 203.56 1066.25 205.216C1066.25 205.437 1066.25 205.878 1066.25 206.54C1066.25 207.203 1066.14 207.865 1065.92 208.527C1063.05 218.351 1059.68 227.071 1055.82 234.687C1052.07 242.193 1048.04 248.927 1043.73 254.887C1039.43 260.848 1034.96 266.146 1030.32 270.782C1025.69 275.528 1021.05 279.889 1016.41 283.862V342.475C1016.41 351.415 1015.36 358.921 1013.27 364.992C1011.28 371.174 1008.63 376.141 1005.32 379.894C1002.01 383.757 998.2 386.517 993.895 388.172C989.701 389.828 985.451 390.656 981.146 390.656C976.4 390.656 972.04 389.607 968.066 387.51C964.093 385.523 960.671 382.764 957.801 379.231C954.931 375.699 952.668 371.56 951.012 366.814C949.467 362.067 948.694 356.99 948.694 351.581ZM981.146 369.297C983.906 369.297 985.948 368.193 987.273 365.986C988.597 363.778 989.48 361.184 989.922 358.204C990.474 355.334 990.75 352.409 990.75 349.429C990.75 346.448 990.75 344.13 990.75 342.475V306.214C985.231 311.733 980.76 317.97 977.338 324.924C974.027 331.878 972.371 340.432 972.371 350.588C972.371 355.886 973.144 360.301 974.689 363.833C976.234 367.476 978.387 369.297 981.146 369.297Z" fill="black"/>
<path d="M1171.88 194.95C1172.11 193.626 1172.82 192.522 1174.04 191.639C1175.36 190.756 1176.85 190.149 1178.51 189.818C1180.16 189.486 1181.87 189.486 1183.64 189.818C1185.52 190.149 1187.12 190.921 1188.44 192.136C1189.88 193.239 1190.87 194.84 1191.42 196.937C1192.08 198.924 1192.03 201.518 1191.26 204.719C1190.26 209.355 1188.61 213.715 1186.29 217.799C1184.08 221.773 1181.27 225.305 1177.85 228.396C1174.42 231.486 1170.39 233.915 1165.76 235.681C1161.12 237.447 1155.93 238.33 1150.19 238.33C1147.1 238.33 1144.18 238.164 1141.42 237.833C1138.77 237.502 1136.18 236.895 1133.64 236.012C1129.44 243.297 1124.03 249.147 1117.41 253.563C1110.79 258.088 1102.62 260.351 1092.91 260.351C1084.3 260.351 1076.9 258.64 1070.72 255.218C1064.54 251.907 1059.41 247.381 1055.32 241.641C1051.24 235.791 1048.2 229.058 1046.22 221.442C1044.34 213.825 1043.4 205.768 1043.4 197.268C1043.4 184.795 1044.84 173.647 1047.71 163.823C1050.69 153.889 1054.11 145.5 1057.97 138.656C1061.83 131.702 1065.64 126.404 1069.4 122.761C1073.26 119.119 1076.13 117.297 1078.01 117.297C1080.21 117.297 1082.2 118.291 1083.97 120.278C1085.84 122.154 1087.17 124.417 1087.94 127.066C1088.82 129.605 1089.04 132.199 1088.6 134.848C1088.27 137.497 1087 139.539 1084.79 140.974C1083.47 143.071 1081.87 145.5 1079.99 148.259C1078.23 151.019 1076.52 154.496 1074.86 158.69C1073.31 162.774 1071.99 167.797 1070.89 173.757C1069.78 179.718 1069.23 186.892 1069.23 195.281C1069.23 202.456 1069.84 208.693 1071.05 213.991C1072.38 219.289 1074.14 223.76 1076.35 227.402C1078.67 230.935 1081.26 233.584 1084.13 235.35C1087.11 237.116 1090.26 237.999 1093.57 237.999C1098.43 237.999 1102.4 236.84 1105.49 234.522C1108.69 232.094 1111.4 228.948 1113.6 225.084C1105.66 218.241 1099.59 209.576 1095.39 199.09C1091.31 188.493 1089.26 177.069 1089.26 164.816C1089.26 159.518 1089.82 154.496 1090.92 149.749C1092.13 144.893 1093.85 140.643 1096.05 137C1098.37 133.358 1101.24 130.488 1104.66 128.391C1108.08 126.183 1112.06 125.079 1116.58 125.079C1120.56 125.079 1124.31 126.514 1127.84 129.384C1131.37 132.254 1134.47 136.228 1137.11 141.305C1139.76 146.383 1141.81 152.398 1143.24 159.352C1144.79 166.306 1145.56 173.868 1145.56 182.036C1145.56 188.327 1145.17 194.564 1144.4 200.745C1143.63 206.927 1142.41 212.887 1140.76 218.627C1141.97 219.069 1143.08 219.345 1144.07 219.455C1145.17 219.455 1146.33 219.455 1147.55 219.455C1151.19 219.455 1154.39 218.793 1157.15 217.468C1160.02 216.143 1162.45 214.377 1164.43 212.17C1166.42 209.962 1168.02 207.368 1169.24 204.388C1170.45 201.408 1171.33 198.262 1171.88 194.95ZM1107.15 163.492C1107.15 171.108 1108.31 178.338 1110.62 185.182C1113.05 192.025 1116.2 197.986 1120.06 203.063C1120.72 197.655 1121.05 192.467 1121.05 187.5C1121.05 181.76 1120.94 176.461 1120.72 171.605C1120.61 166.638 1120.23 162.388 1119.56 158.856C1119.01 155.324 1118.18 152.564 1117.08 150.577C1116.09 148.48 1114.71 147.431 1112.94 147.431C1109.08 147.431 1107.15 152.785 1107.15 163.492Z" fill="black"/>
<path d="M1267.92 237.999C1271.34 237.999 1274.26 236.785 1276.69 234.356C1279.23 231.928 1281.38 228.892 1283.15 225.25C1285.03 221.607 1286.52 217.689 1287.62 213.494C1288.83 209.189 1289.83 205.161 1290.6 201.408C1291.37 197.875 1292.48 195.337 1293.91 193.791C1295.46 192.136 1297.11 191.308 1298.88 191.308C1300.2 191.308 1301.53 191.749 1302.85 192.632C1304.29 193.405 1305.56 194.454 1306.66 195.778C1307.87 197.103 1308.81 198.593 1309.47 200.249C1310.25 201.904 1310.63 203.56 1310.63 205.216C1310.63 205.437 1310.63 205.712 1310.63 206.044C1310.63 206.375 1310.52 206.871 1310.3 207.534C1308.87 213.163 1306.88 219.069 1304.34 225.25C1301.91 231.431 1298.77 237.116 1294.9 242.304C1291.04 247.492 1286.35 251.797 1280.83 255.218C1275.42 258.64 1269.08 260.351 1261.79 260.351C1255.83 260.351 1250.64 259.082 1246.23 256.543C1241.81 254.004 1238.33 250.638 1235.8 246.443C1232.37 250.306 1228.23 253.563 1223.38 256.212C1218.63 258.971 1213.06 260.351 1206.65 260.351C1200.03 260.351 1194.18 259.026 1189.1 256.377C1184.14 253.728 1179.94 250.141 1176.52 245.615C1173.1 240.979 1170.51 235.571 1168.74 229.389C1167.08 223.097 1166.26 216.364 1166.26 209.189C1166.26 195.061 1168.52 182.367 1173.04 171.108C1177.57 159.849 1183.59 150.301 1191.09 142.464C1198.6 134.517 1207.15 128.446 1216.75 124.251C1226.47 120.057 1236.51 117.96 1246.89 117.96C1251.52 117.96 1255.28 119.229 1258.15 121.768C1261.02 124.306 1262.45 127.783 1262.45 132.199C1262.45 135.069 1262.12 137.111 1261.46 138.325C1260.91 139.429 1259.8 139.981 1258.15 139.981C1256.6 139.981 1255 139.87 1253.35 139.649C1251.69 139.429 1249.98 139.318 1248.21 139.318C1241.81 139.318 1235.3 140.753 1228.68 143.623C1222.05 146.383 1216.04 150.688 1210.63 156.538C1205.33 162.278 1200.97 169.618 1197.55 178.559C1194.13 187.389 1192.42 197.931 1192.42 210.183C1192.42 219.124 1194.13 226.023 1197.55 230.879C1200.97 235.626 1205.66 237.999 1211.62 237.999C1216.26 237.999 1220.12 236.288 1223.21 232.866C1226.3 229.334 1228.79 225.195 1230.66 220.448V168.128C1230.66 166.472 1230.55 165.092 1230.33 163.988C1230.22 162.885 1230.06 161.946 1229.83 161.174C1229.72 160.401 1229.61 159.739 1229.5 159.187C1229.39 158.525 1229.34 157.917 1229.34 157.366C1229.34 155.599 1230.17 154.22 1231.82 153.226C1233.59 152.122 1235.69 151.571 1238.11 151.571C1243.74 151.571 1248.21 153.061 1251.52 156.041C1254.84 158.911 1256.49 162.388 1256.49 166.472V222.435C1256.49 224.312 1256.71 226.188 1257.15 228.065C1257.6 229.831 1258.26 231.486 1259.14 233.032C1260.02 234.467 1261.18 235.681 1262.62 236.674C1264.16 237.557 1265.93 237.999 1267.92 237.999Z" fill="black"/>
<path d="M1317.92 150.577C1319.13 148.259 1320.29 145.168 1321.4 141.305C1322.61 137.331 1323.71 132.971 1324.71 128.225C1325.81 123.479 1326.8 118.511 1327.69 113.324C1328.57 108.136 1329.34 103.058 1330.01 98.091C1330.67 93.1238 1331.16 88.4878 1331.5 84.1829C1331.94 79.7677 1332.16 76.0147 1332.16 72.9241C1332.16 61.6652 1331.33 53.4418 1329.67 48.2539C1328.02 42.9556 1325.81 40.3065 1323.05 40.3065C1322.17 40.3065 1321.4 40.748 1320.73 41.6311C1320.07 42.5141 1319.52 43.6731 1319.08 45.1081C1318.64 46.4326 1318.31 47.9228 1318.08 49.5785C1317.97 51.1238 1317.92 52.5588 1317.92 53.8834V150.577ZM1366.1 201.739C1366.76 198.427 1367.76 196.054 1369.08 194.619C1370.52 193.074 1372.01 192.246 1373.55 192.136C1375.21 191.915 1376.86 192.301 1378.52 193.295C1380.17 194.178 1381.61 195.392 1382.82 196.937C1384.04 198.482 1384.92 200.249 1385.47 202.235C1386.13 204.112 1386.24 205.988 1385.8 207.865C1384.26 212.391 1382.05 217.689 1379.18 223.76C1376.31 229.831 1372.67 235.571 1368.25 240.979C1363.84 246.388 1358.65 250.969 1352.69 254.722C1346.73 258.475 1339.88 260.351 1332.16 260.351C1325.65 260.351 1319.91 259.247 1314.94 257.04C1309.97 254.942 1305.78 251.962 1302.36 248.099C1299.04 244.125 1296.5 239.434 1294.74 234.025C1293.08 228.506 1292.26 222.38 1292.26 215.647V61.3341C1292.26 55.0424 1293.03 49.2473 1294.57 43.9491C1296.23 38.5404 1298.44 33.9596 1301.2 30.2066C1304.07 26.3433 1307.38 23.363 1311.13 21.2658C1314.88 19.0581 1318.86 17.9543 1323.05 17.9543C1328.02 17.9543 1332.21 18.8926 1335.64 20.769C1339.06 22.5351 1341.87 24.9083 1344.08 27.8886C1346.29 30.8689 1348 34.2907 1349.21 38.1541C1350.54 42.0174 1351.47 45.9911 1352.03 50.0752C1352.58 54.0489 1352.91 58.0226 1353.02 61.9964C1353.13 65.8597 1353.19 69.3919 1353.19 72.5929C1353.19 80.8715 1352.41 89.5916 1350.87 98.7532C1349.32 107.804 1347.34 116.745 1344.91 125.576C1342.59 134.406 1340 142.906 1337.13 151.074C1334.37 159.132 1331.66 166.306 1329.01 172.598C1326.47 178.89 1324.16 184.023 1322.06 187.996C1320.07 191.97 1318.69 194.288 1317.92 194.95V214.653C1317.92 221.497 1319.35 227.126 1322.22 231.542C1325.09 235.846 1329.67 237.999 1335.97 237.999C1339.83 237.999 1343.42 236.84 1346.73 234.522C1350.15 232.094 1353.13 229.113 1355.67 225.581C1358.32 221.938 1360.53 218.02 1362.29 213.825C1364.06 209.521 1365.33 205.492 1366.1 201.739Z" fill="black"/>
</svg>
